<?xml version='1.0' encoding='UTF-8' standalone='no'?>
<svg xmlns:xlink="http://www.w3.org/1999/xlink" xmlns="http://www.w3.org/2000/svg" viewBox="0 0 314 221" width="314pt" height="221pt">
 <title>gl2ps_renderer figure</title>
 <desc>
Creator: GL2PS 1.4.2, (C) 1999-2020 C. Geuzaine
For: Octave
CreationDate: Thu Feb  9 13:56:52 2023
</desc>
 <defs/>
 <polygon fill="#ffffff" points="0,0 314,0 314,221 0,221"/>
 <g>
  <polygon fill="#ffffff" points="0,221 314,221 314,0 0,0" shape-rendering="crispEdges"/>
  <clipPath id="cp00314221">
   <polygon points="0,221 314,221 314,0 0,0"/>
  </clipPath>
  <g clip-path="url(#cp00314221)">
   <polygon fill="#ffffff" points="77.8594,21 77.8594,191.306 248.166,191.306 248.166,21" shape-rendering="crispEdges"/>
   <text transform="translate(139.512,221.068) rotate(-0,23.5,-10)" font-family="FreeSans" font-style="normal" xml:space="preserve" font-weight="bold" font-size="9.9">
    <tspan y="-1" fill="rgb(38,38,38)" x="0 5 8 11 17 23 29 32 35 41 ">x-location</tspan>
   </text>
   <text transform="translate(32.8513,106.153) rotate(-90,23.5,0)" font-family="FreeSans" font-style="normal" xml:space="preserve" font-weight="bold" font-size="9.9">
    <tspan y="-2" fill="rgb(38,38,38)" x="0 5 8 11 17 23 29 32 35 41 ">y-location</tspan>
   </text>
   <text transform="translate(139.512,11) rotate(-0,23.5,0)" font-family="FreeSans" font-style="normal" xml:space="preserve" font-weight="bold" font-size="9.9">
    <tspan y="-2" fill="rgb(0,0,0)" x="0 7 10 15 21 24 30 36 39 42 ">U-velocity</tspan>
   </text>
   <polygon fill="#003fff" points="77.8594,21 83.3531,21 88.8469,21 94.3406,21 99.8344,21 105.328,21 110.822,21 116.316,21 121.809,21 127.303,21 132.797,21 138.291,21 143.784,21 149.278,21 154.772,21 160.266,21 165.759,21 171.253,21 176.747,21 182.241,21 187.734,21 193.228,21 198.722,21 204.216,21 209.709,21 215.203,21 220.697,21 226.191,21 231.684,21 237.178,21 242.672,21 248.166,21 248.166,26.4938 248.166,31.9875 248.166,37.4813 248.166,42.975 248.166,48.4688 248.166,53.9625 248.166,59.4563 248.166,64.95 248.166,70.4438 248.166,75.9375 248.166,81.4313 248.166,86.925 248.166,92.4188 248.166,97.9125 248.166,103.406 248.166,108.9 248.166,114.394 248.166,119.888 248.166,125.381 248.166,130.875 248.166,136.369 248.166,141.863 248.166,147.356 248.166,152.85 248.166,158.344 248.166,163.838 248.166,169.331 248.166,174.825 248.166,180.319 248.166,185.813 248.166,191.306 242.672,191.306 237.178,191.306 231.684,191.306 226.191,191.306 220.697,191.306 215.203,191.306 209.709,191.306 204.216,191.306 198.722,191.306 193.228,191.306 187.734,191.306 182.241,191.306 176.747,191.306 171.253,191.306 165.759,191.306 160.266,191.306 154.772,191.306 149.278,191.306 143.784,191.306 138.291,191.306 132.797,191.306 127.303,191.306 121.809,191.306 116.316,191.306 110.822,191.306 105.328,191.306 99.8344,191.306 94.3406,191.306 88.8469,191.306 83.3531,191.306 77.8594,191.306 77.8594,185.813 77.8594,180.319 77.8594,174.825 77.8594,169.331 77.8594,163.838 77.8594,158.344 77.8594,152.85 77.8594,147.356 77.8594,141.863 77.8594,136.369 77.8594,130.875 77.8594,125.381 77.8594,119.888 77.8594,114.394 77.8594,108.9 77.8594,103.406 77.8594,97.9125 77.8594,92.4188 77.8594,86.925 77.8594,81.4313 77.8594,75.9375 77.8594,70.4438 77.8594,64.95 77.8594,59.4563 77.8594,53.9625 77.8594,48.4688 77.8594,42.975 77.8594,37.4813 77.8594,31.9875 77.8594,26.4938" shape-rendering="crispEdges"/>
   <polygon fill="#001fff" points="79.3137,37.4813 79.3419,31.9875 83.3531,30.7586 88.8469,31.7011 90.1453,31.9875 94.3406,34.5939 99.8344,36.7997 101.83,37.4813 105.328,40.2117 110.397,42.975 110.822,43.4586 116.316,48.2282 116.677,48.4688 121.809,53.6581 122.219,53.9625 127.303,58.2868 129.302,59.4563 132.797,61.3976 138.291,63.5357 143.756,64.95 143.784,64.9568 149.278,66.0386 154.772,66.7279 160.266,67.1006 165.759,67.1978 171.253,67.0398 176.747,66.632 182.241,65.9661 187.734,65.0179 188.022,64.95 193.228,63.9061 198.722,62.4869 204.216,60.6602 207.045,59.4563 209.709,58.4671 215.203,55.8567 218.252,53.9625 220.697,52.5927 226.098,48.4688 226.191,48.4052 231.684,43.5036 232.212,42.975 237.153,37.4813 237.178,37.4606 242.444,31.9875 242.672,31.8469 244.644,31.9875 247.213,37.4813 247.163,42.975 246.942,48.4688 246.659,53.9625 246.351,59.4563 246.021,64.95 245.655,70.4438 245.231,75.9375 244.723,81.4313 244.102,86.925 243.332,92.4188 242.672,96.3978 242.558,97.9125 242.118,103.406 241.589,108.9 240.947,114.394 240.16,119.888 239.193,125.381 237.999,130.875 237.178,134.192 236.777,136.369 235.665,141.863 234.272,147.356 232.46,152.85 231.684,154.847 230.471,158.344 227.95,163.838 226.191,166.702 224.582,169.331 220.697,174.049 220.004,174.825 215.203,179.138 213.59,180.319 209.709,182.649 204.216,184.914 201.146,185.813 198.722,186.374 193.228,187.285 187.734,187.869 182.241,188.249 176.747,188.494 171.253,188.639 165.759,188.708 160.266,188.709 154.772,188.648 149.278,188.52 143.784,188.317 138.291,188.019 132.797,187.591 127.303,186.976 121.809,186.066 120.611,185.813 116.316,184.667 110.822,182.525 106.952,180.319 105.328,179.124 100.736,174.825 99.8344,173.655 96.8292,169.331 94.4221,163.838 94.3406,163.591 92.5249,158.344 91.2541,152.85 90.3743,147.356 89.7521,141.863 89.3135,136.369 89.0159,130.875 88.8469,125.769 88.829,125.381 88.7135,119.888 88.7321,114.394 88.8469,110.017 88.8675,108.9 89.0471,103.406 89.2907,97.9125 89.562,92.4188 89.7857,86.925 89.8258,81.4313 89.4883,75.9375 88.8469,72.0904 88.5288,70.4438 86.8779,64.95 85.0866,59.4563 83.4108,53.9625 83.3531,53.8091 81.32,48.4688 80.0155,42.975" shape-rendering="crispEdges"/>
   <polygon fill="#0000ff" points="105.186,114.394 105.328,111.803 105.48,108.9 106.057,103.406 106.948,97.9125 108.187,92.4188 109.827,86.925 110.822,84.1351 112.056,81.4313 115.679,75.9375 116.316,75.2354 121.809,72.6112 127.303,72.0529 132.797,72.0661 138.291,72.2175 143.784,72.3496 149.278,72.395 154.772,72.3198 160.266,72.1033 165.759,71.7287 171.253,71.1785 176.645,70.4438 176.747,70.4322 182.241,69.5801 187.734,68.5136 193.228,67.1909 198.722,65.5394 200.313,64.95 204.216,63.6986 209.709,61.5058 213.719,59.4563 215.203,58.7785 220.697,55.6825 223.155,53.9625 226.191,51.8825 230.172,48.4688 231.684,47.1288 235.83,42.975 237.178,41.4696 241.485,37.4813 242.672,36.1495 243.643,37.4813 243.406,42.975 242.672,47.0423 242.246,48.4688 241.305,53.9625 240.683,59.4563 240.12,64.95 239.525,70.4438 238.845,75.9375 238.034,81.4313 237.178,86.2771 237.079,86.925 236.198,92.4188 235.18,97.9125 233.975,103.406 232.525,108.9 231.684,111.733 230.941,114.394 229.259,119.888 227.26,125.381 226.191,128.053 225.047,130.875 222.606,136.369 220.697,140.163 219.785,141.863 216.634,147.356 215.203,149.629 212.961,152.85 209.709,157.082 208.599,158.344 204.216,162.972 203.242,163.838 198.722,167.592 196.106,169.331 193.228,171.096 187.734,173.694 184.503,174.825 182.241,175.541 176.747,176.781 171.253,177.549 165.759,177.921 160.266,177.94 154.772,177.62 149.278,176.952 143.784,175.899 139.798,174.825 138.291,174.36 132.797,172.151 127.598,169.331 127.303,169.143 121.809,164.861 120.724,163.838 116.316,158.672 116.072,158.344 112.714,152.85 110.822,148.721 110.238,147.356 108.375,141.863 107.023,136.369 106.081,130.875 105.484,125.381 105.328,122.436 105.186,119.888" shape-rendering="crispEdges"/>
   <polygon fill="#0000df" points="118.328,114.394 118.841,108.9 119.952,103.406 121.809,97.9247 121.814,97.9125 124.805,92.4188 127.303,89.4027 129.929,86.925 132.797,85.0341 138.291,82.4663 141.283,81.4313 143.784,80.7841 149.278,79.6075 154.772,78.6176 160.266,77.6908 165.759,76.7446 170.009,75.9375 171.253,75.7446 176.747,74.741 182.241,73.597 187.734,72.2659 193.228,70.6817 193.927,70.4438 198.722,69.0479 204.216,67.1342 209.253,64.95 209.709,64.7759 215.203,62.3808 220.337,59.4563 220.697,59.2637 226.191,56.1641 229.94,53.9625 231.684,52.6936 235.098,53.9625 235.833,59.4563 235.482,64.95 234.934,70.4438 234.237,75.9375 233.376,81.4313 232.314,86.925 231.684,89.6878 231.05,92.4188 229.645,97.9125 228.021,103.406 226.191,108.668 226.105,108.9 223.991,114.394 221.555,119.888 220.697,121.693 218.779,125.381 215.629,130.875 215.203,131.593 212.008,136.369 209.709,139.591 207.82,141.863 204.216,146.074 202.901,147.356 198.722,151.409 196.893,152.85 193.228,155.749 189.046,158.344 187.734,159.158 182.241,161.792 176.747,163.649 175.882,163.838 171.253,164.842 165.759,165.396 160.266,165.345 154.772,164.689 151.109,163.838 149.278,163.377 143.784,161.277 138.402,158.344 138.291,158.274 132.797,153.918 131.709,152.85 127.303,147.579 127.144,147.356 123.917,141.863 121.809,137 121.559,136.369 119.922,130.875 118.868,125.381 118.343,119.888" shape-rendering="crispEdges"/>
   <polygon fill="#0000cf" points="131.15,114.394 131.907,108.9 132.797,106.057 133.678,103.406 136.84,97.9125 138.291,96.2749 142.276,92.4188 143.784,91.4111 149.278,88.2957 152.107,86.925 154.772,85.9634 160.266,84.1588 165.759,82.4989 169.284,81.4313 171.253,80.9569 176.747,79.5553 182.241,78.0665 187.734,76.4169 189.153,75.9375 193.228,74.7869 198.722,73.0319 204.216,70.9605 205.476,70.4438 209.709,68.9137 215.203,66.6529 219.117,64.95 220.697,64.2805 226.191,62.9917 228.657,64.95 229.719,70.4438 229.404,75.9375 228.636,81.4313 227.563,86.925 226.196,92.4188 226.191,92.4358 224.433,97.9125 222.449,103.406 220.697,107.658 220.118,108.9 217.383,114.394 215.203,118.363 214.233,119.888 210.567,125.381 209.709,126.615 206.205,130.875 204.216,133.234 201.002,136.369 198.722,138.6 194.564,141.863 193.228,142.934 187.734,146.395 185.697,147.356 182.241,149.057 176.747,150.931 171.253,152.041 165.759,152.395 160.266,151.952 154.772,150.622 149.278,148.274 147.766,147.356 143.784,144.523 140.971,141.863 138.291,138.662 136.708,136.369 133.901,130.875 132.797,127.579 132.13,125.381 131.24,119.888" shape-rendering="crispEdges"/>
   <polygon fill="#005fff" points="78.01,21 83.3531,21 88.8469,21 94.3406,21 99.8344,21 105.328,21 110.822,21 116.316,21 121.809,21 127.303,21 132.797,21 138.291,21 143.784,21 149.278,21 154.772,21 160.266,21 165.759,21 171.253,21 176.747,21 182.241,21 187.734,21 193.228,21 198.722,21 204.216,21 209.709,21 215.203,21 220.697,21 226.191,21 231.684,21 237.178,21 242.672,21 248.015,21 247.423,26.4938 242.672,30.9064 240.917,31.9875 237.178,35.8735 235.215,37.4813 231.684,41.2216 229.497,42.975 226.191,46.0352 222.646,48.4688 220.697,49.9568 215.203,53.1489 213.366,53.9625 209.709,55.8173 204.216,57.9185 198.93,59.4563 198.722,59.5265 193.228,60.9323 187.734,61.9579 182.241,62.6627 176.747,63.0753 171.253,63.2048 165.759,63.0446 160.266,62.5716 154.772,61.7395 149.278,60.4657 146.094,59.4563 143.784,58.752 138.291,56.5496 133.743,53.9625 132.797,53.5025 127.303,50.1476 125.229,48.4688 121.809,46.5758 116.955,42.975 116.316,42.7057 110.822,40.0362 106.959,37.4813 105.328,36.9631 99.8344,34.9714 94.3712,31.9875 94.3406,31.9807 88.8469,30.7671 83.3531,29.0575 79.657,26.4938" shape-rendering="crispEdges"/>
   <polygon fill="#007fff" points="78.2155,21 83.3531,21 88.8469,21 94.3406,21 99.8344,21 105.328,21 110.822,21 116.316,21 121.809,21 127.303,21 132.797,21 138.291,21 143.784,21 149.278,21 154.772,21 160.266,21 165.759,21 171.253,21 176.747,21 182.241,21 187.734,21 193.228,21 198.722,21 204.216,21 209.709,21 215.203,21 220.697,21 226.191,21 231.684,21 237.178,21 242.672,21 247.81,21 246.411,26.4938 242.672,29.966 239.39,31.9875 237.178,34.2864 233.277,37.4813 231.684,39.1689 226.936,42.975 226.191,43.6653 220.697,47.6004 219.057,48.4688 215.203,50.8357 209.709,53.3057 207.777,53.9625 204.216,55.3714 198.722,56.9833 193.228,58.1596 187.734,58.9776 182.466,59.4563 182.241,59.4808 176.747,59.712 171.253,59.6052 169.383,59.4563 165.759,59.1866 160.266,58.4552 154.772,57.3392 149.278,55.7469 144.768,53.9625 143.784,53.6273 138.291,51.3435 133.212,48.4688 132.797,48.2977 127.303,45.667 123.025,42.975 121.809,42.5153 116.316,40.1353 111.633,37.4813 110.822,37.2433 105.328,35.4682 99.8344,33.1432 97.7185,31.9875 94.3406,31.2368 88.8469,29.8331 83.3531,27.3564 82.1094,26.4938" shape-rendering="crispEdges"/>
   <polygon fill="#009fff" points="78.421,21 83.3531,21 88.8469,21 94.3406,21 99.8344,21 105.328,21 110.822,21 116.316,21 121.809,21 127.303,21 132.797,21 138.291,21 143.784,21 149.278,21 154.772,21 160.266,21 165.759,21 171.253,21 176.747,21 182.241,21 187.734,21 193.228,21 198.722,21 204.216,21 209.709,21 215.203,21 220.697,21 226.191,21 231.684,21 237.178,21 242.672,21 247.604,21 245.398,26.4938 242.672,29.0255 237.863,31.9875 237.178,32.6993 231.684,37.2666 231.337,37.4813 226.191,41.8114 224.271,42.975 220.697,45.6063 215.291,48.4688 215.203,48.5225 209.709,51.1166 204.216,53 200.376,53.9625 198.722,54.4502 193.228,55.5851 187.734,56.3208 182.241,56.7029 176.747,56.7507 171.253,56.4641 165.759,55.8245 160.266,54.791 157.099,53.9625 154.772,53.4309 149.278,51.8268 143.784,49.7043 141.219,48.4688 138.291,47.4145 132.797,45.0305 129.008,42.975 127.303,42.3924 121.809,40.2593 116.316,37.565 116.168,37.4813 110.822,35.9129 105.328,33.9734 101.026,31.9875 99.8344,31.737 94.3406,30.4929 88.8469,28.8992 84.2356,26.4938 83.3531,26.3832" shape-rendering="crispEdges"/>
   <polygon fill="#00bfff" points="78.6265,21 83.3531,21 88.8469,21 94.3406,21 99.8344,21 105.328,21 110.822,21 116.316,21 121.809,21 127.303,21 132.797,21 138.291,21 143.784,21 149.278,21 154.772,21 160.266,21 165.759,21 171.253,21 176.747,21 182.241,21 187.734,21 193.228,21 198.722,21 204.216,21 209.709,21 215.203,21 220.697,21 226.191,21 231.684,21 237.178,21 242.672,21 247.398,21 244.385,26.4938 242.672,28.0851 237.178,31.5973 236.406,31.9875 231.684,36.0595 229.386,37.4813 226.191,40.1695 221.562,42.975 220.697,43.6122 215.203,46.649 210.68,48.4688 209.709,48.9276 204.216,50.8459 198.722,52.2131 193.228,53.1457 187.734,53.7069 182.241,53.9333 176.747,53.8444 171.253,53.4461 165.759,52.7309 160.266,51.6747 154.772,50.2306 149.683,48.4688 149.278,48.3589 143.784,46.626 138.291,44.4822 135.099,42.975 132.797,42.2611 127.303,40.3349 121.809,38.0034 120.749,37.4813 116.316,36.2781 110.822,34.5824 105.328,32.4785 104.264,31.9875 99.8344,31.0562 94.3406,29.749 88.8469,27.9652 86.026,26.4938 83.3531,26.1589" shape-rendering="crispEdges"/>
   <polygon fill="#0000af" points="144.558,114.394 145.45,108.9 147.849,103.406 149.278,101.547 152.308,97.9125 154.772,95.9938 159.862,92.4188 160.266,92.2171 165.759,89.6132 171.253,87.1728 171.808,86.925 176.747,85.2354 182.241,83.3308 187.389,81.4313 187.734,81.3282 193.228,79.6129 198.722,77.7441 203.507,75.9375 204.216,75.7095 209.709,74.0638 215.203,72.6207 220.697,72.9355 222.557,75.9375 222.885,81.4313 222.136,86.925 220.836,92.4188 220.697,92.8555 218.815,97.9125 216.501,103.406 215.203,106.119 213.629,108.9 210.263,114.394 209.709,115.241 206.055,119.888 204.216,122.137 200.942,125.381 198.722,127.555 194.425,130.875 193.228,131.81 187.734,135.077 184.713,136.369 182.241,137.462 176.747,138.972 171.253,139.599 165.759,139.269 160.266,137.833 157.219,136.369 154.772,134.896 150.33,130.875 149.278,129.494 146.813,125.381 145.001,119.888" shape-rendering="crispEdges"/>
   <polygon fill="#00dfff" points="78.832,21 83.3531,21 88.8469,21 94.3406,21 99.8344,21 105.328,21 110.822,21 116.316,21 121.809,21 127.303,21 132.797,21 138.291,21 143.784,21 149.278,21 154.772,21 160.266,21 165.759,21 171.253,21 176.747,21 182.241,21 187.734,21 193.228,21 198.722,21 204.216,21 209.709,21 215.203,21 220.697,21 226.191,21 231.684,21 237.178,21 242.672,21 247.193,21 243.373,26.4938 242.672,27.1446 237.178,30.8898 235.007,31.9875 231.684,34.8525 227.434,37.4813 226.191,38.5277 220.697,41.9319 218.435,42.975 215.203,44.7859 209.709,47.0283 204.852,48.4688 204.216,48.6919 198.722,50.0466 193.228,50.9364 187.734,51.4317 182.241,51.5716 176.747,51.375 171.253,50.8454 165.759,49.9705 160.266,48.7185 159.397,48.4688 154.772,47.4061 149.278,45.852 143.784,43.9361 141.457,42.975 138.291,42.084 132.797,40.3361 127.303,38.2775 125.463,37.4813 121.809,36.5603 116.316,35.0344 110.822,33.252 107.603,31.9875 105.328,31.5409 99.8344,30.3753 94.3406,29.0051 88.8469,27.0312 87.8165,26.4938 83.3531,25.9346" shape-rendering="crispEdges"/>
   <polygon fill="#00ffff" points="79.0375,21 83.3531,21 88.8469,21 94.3406,21 99.8344,21 105.328,21 110.822,21 116.316,21 121.809,21 127.303,21 132.797,21 138.291,21 143.784,21 149.278,21 154.772,21 160.266,21 165.759,21 171.253,21 176.747,21 182.241,21 187.734,21 193.228,21 198.722,21 204.216,21 209.709,21 215.203,21 220.697,21 226.191,21 231.684,21 237.178,21 242.672,21 246.987,21 242.672,26.4144 242.366,26.4938 237.178,30.1823 233.607,31.9875 231.684,33.6454 226.191,37.0615 225.312,37.4813 220.697,40.3991 215.203,42.9327 215.08,42.975 209.709,45.2059 204.216,46.8367 198.722,47.9692 194.881,48.4688 193.228,48.7271 187.734,49.1566 182.241,49.2098 176.747,48.9056 173.052,48.4688 171.253,48.2898 165.759,47.4858 160.266,46.4092 154.772,45.042 149.278,43.345 148.252,42.975 143.784,41.8388 138.291,40.2508 132.797,38.411 130.376,37.4813 127.303,36.7598 121.809,35.3621 116.316,33.7907 111.003,31.9875 110.822,31.9542 105.328,30.8759 99.8344,29.6944 94.3406,28.2612 89.6796,26.4938 88.8469,26.3849 83.3531,25.7103" shape-rendering="crispEdges"/>
   <polygon fill="#1fffdf" points="79.243,21 83.3531,21 88.8469,21 94.3406,21 99.8344,21 105.328,21 110.822,21 116.316,21 121.809,21 127.303,21 132.797,21 138.291,21 143.784,21 149.278,21 154.772,21 160.266,21 165.759,21 171.253,21 176.747,21 182.241,21 187.734,21 193.228,21 198.722,21 204.216,21 209.709,21 215.203,21 220.697,21 226.191,21 231.684,21 237.178,21 242.672,21 246.782,21 242.672,26.1565 241.371,26.4938 237.178,29.4749 232.207,31.9875 231.684,32.4384 226.191,35.9041 222.887,37.4813 220.697,38.8662 215.203,41.4202 210.693,42.975 209.709,43.3835 204.216,45.0161 198.722,46.1307 193.228,46.8189 187.734,47.138 182.241,47.1273 176.747,46.8135 171.253,46.2126 165.759,45.3302 160.266,44.1596 155.831,42.975 154.772,42.7632 149.278,41.5087 143.784,40.0709 138.291,38.4174 135.561,37.4813 132.797,36.8759 127.303,35.5828 121.809,34.1639 116.316,32.547 114.667,31.9875 110.822,31.2825 105.328,30.2109 99.8344,29.0136 94.3406,27.5173 91.6413,26.4938 88.8469,26.1285 83.3531,25.486" shape-rendering="crispEdges"/>
   <polygon fill="#3fffbf" points="79.4485,21 83.3531,21 88.8469,21 94.3406,21 99.8344,21 105.328,21 110.822,21 116.316,21 121.809,21 127.303,21 132.797,21 138.291,21 143.784,21 149.278,21 154.772,21 160.266,21 165.759,21 171.253,21 176.747,21 182.241,21 187.734,21 193.228,21 198.722,21 204.216,21 209.709,21 215.203,21 220.697,21 226.191,21 231.684,21 237.178,21 242.672,21 246.576,21 242.672,25.8987 240.376,26.4938 237.178,28.7673 231.684,31.5256 230.541,31.9875 226.191,34.7466 220.697,37.3669 220.385,37.4813 215.203,39.9077 209.709,41.7959 204.957,42.975 204.216,43.1955 198.722,44.2923 193.228,44.9505 187.734,45.2307 182.241,45.1725 176.747,44.8025 171.253,44.1354 165.759,43.1746 164.861,42.975 160.266,42.1902 154.772,41.0785 149.278,39.7885 143.784,38.303 141.108,37.4813 138.291,36.9064 132.797,35.705 127.303,34.4058 121.809,32.9656 118.527,31.9875 116.316,31.6075 110.822,30.6109 105.328,29.5459 99.8344,28.3327 94.3406,26.7734 93.603,26.4938 88.8469,25.872 83.3531,25.2617" shape-rendering="crispEdges"/>
   <polygon fill="#5fff9f" points="79.654,21 83.3531,21 88.8469,21 94.3406,21 99.8344,21 105.328,21 110.822,21 116.316,21 121.809,21 127.303,21 132.797,21 138.291,21 143.784,21 149.278,21 154.772,21 160.266,21 165.759,21 171.253,21 176.747,21 182.241,21 187.734,21 193.228,21 198.722,21 204.216,21 209.709,21 215.203,21 220.697,21 226.191,21 231.684,21 237.178,21 242.672,21 246.371,21 242.672,25.6409 239.381,26.4938 237.178,28.0598 231.684,30.7883 228.716,31.9875 226.191,33.5891 220.697,36.1813 217.155,37.4813 215.203,38.3952 209.709,40.2761 204.216,41.6262 198.722,42.5355 194.153,42.975 193.228,43.0822 187.734,43.3233 182.241,43.2177 179.074,42.975 176.747,42.8286 171.253,42.2601 165.759,41.4898 160.266,40.5324 154.772,39.3937 149.278,38.0683 147.139,37.4813 143.784,36.8469 138.291,35.7317 132.797,34.5341 127.303,33.2289 122.624,31.9875 121.809,31.8557 116.316,30.9168 110.822,29.9392 105.328,28.8809 99.8344,27.6519 95.8151,26.4938 94.3406,26.3097 88.8469,25.6156 83.3531,25.0374" shape-rendering="crispEdges"/>
   <polygon fill="#7fff7f" points="79.8595,21 83.3531,21 88.8469,21 94.3406,21 99.8344,21 105.328,21 110.822,21 116.316,21 121.809,21 127.303,21 132.797,21 138.291,21 143.784,21 149.278,21 154.772,21 160.266,21 165.759,21 171.253,21 176.747,21 182.241,21 187.734,21 193.228,21 198.722,21 204.216,21 209.709,21 215.203,21 220.697,21 226.191,21 231.684,21 237.178,21 242.672,21 246.165,21 242.672,25.3831 238.386,26.4938 237.178,27.3524 231.684,30.0509 226.891,31.9875 226.191,32.4316 220.697,34.9957 215.203,36.9951 213.442,37.4813 209.709,38.7563 204.216,40.0915 198.722,40.9851 193.228,41.4997 187.734,41.6845 182.241,41.5809 176.747,41.2234 171.253,40.6404 165.759,39.853 160.266,38.8746 154.772,37.709 153.837,37.4813 149.278,36.6905 143.784,35.6616 138.291,34.5569 132.797,33.3632 127.303,32.0518 127.061,31.9875 121.809,31.1382 116.316,30.226 110.822,29.2675 105.328,28.2159 99.8344,26.971 98.178,26.4938 94.3406,26.0147 88.8469,25.3592 83.3531,24.8131" shape-rendering="crispEdges"/>
   <polygon fill="#afff4f" points="80.065,21 83.3531,21 88.8469,21 94.3406,21 99.8344,21 105.328,21 110.822,21 116.316,21 121.809,21 127.303,21 132.797,21 138.291,21 143.784,21 149.278,21 154.772,21 160.266,21 165.759,21 171.253,21 176.747,21 182.241,21 187.734,21 193.228,21 198.722,21 204.216,21 209.709,21 215.203,21 220.697,21 226.191,21 231.684,21 237.178,21 242.672,21 245.96,21 242.672,25.1252 237.391,26.4938 237.178,26.6449 231.684,29.3135 226.191,31.4829 224.618,31.9875 220.697,33.8101 215.203,35.7664 209.709,37.2772 208.683,37.4813 204.216,38.5569 198.722,39.4347 193.228,39.9346 187.734,40.1058 182.241,39.9891 176.747,39.6183 171.253,39.0207 165.759,38.2163 161.706,37.4813 160.266,37.2838 154.772,36.4276 149.278,35.4901 143.784,34.4763 138.291,33.3822 132.797,32.1924 131.939,31.9875 127.303,31.2792 121.809,30.4207 116.316,29.5352 110.822,28.5959 105.328,27.5508 100.704,26.4938 99.8344,26.393 94.3406,25.7197 88.8469,25.1028 83.3531,24.5888" shape-rendering="crispEdges"/>
   <polygon fill="#bfff3f" points="80.2705,21 83.3531,21 88.8469,21 94.3406,21 99.8344,21 105.328,21 110.822,21 116.316,21 121.809,21 127.303,21 132.797,21 138.291,21 143.784,21 149.278,21 154.772,21 160.266,21 165.759,21 171.253,21 176.747,21 182.241,21 187.734,21 193.228,21 198.722,21 204.216,21 209.709,21 215.203,21 220.697,21 226.191,21 231.684,21 237.178,21 242.672,21 245.754,21 242.672,24.8674 237.178,26.2201 235.982,26.4938 231.684,28.5762 226.191,30.6641 222.068,31.9875 220.697,32.6245 215.203,34.5378 209.709,36.0101 204.216,37.0938 201.276,37.4813 198.722,37.8843 193.228,38.3694 187.734,38.527 182.241,38.3973 176.747,38.0132 171.967,37.4813 171.253,37.418 165.759,36.7881 160.266,36.0457 154.772,35.2091 149.278,34.2897 143.784,33.291 138.291,32.2075 137.274,31.9875 132.797,31.3401 127.303,30.5299 121.809,29.7032 116.316,28.8445 110.822,27.9242 105.328,26.8858 103.613,26.4938 99.8344,26.0559 94.3406,25.4247 88.8469,24.8463 83.3531,24.3645" shape-rendering="crispEdges"/>
   <polygon fill="#efff0f" points="80.4761,21 83.3531,21 88.8469,21 94.3406,21 99.8344,21 105.328,21 110.822,21 116.316,21 121.809,21 127.303,21 132.797,21 138.291,21 143.784,21 149.278,21 154.772,21 160.266,21 165.759,21 171.253,21 176.747,21 182.241,21 187.734,21 193.228,21 198.722,21 204.216,21 209.709,21 215.203,21 220.697,21 226.191,21 231.684,21 237.178,21 242.672,21 245.549,21 242.672,24.6096 237.178,25.8721 234.46,26.4938 231.684,27.8388 226.191,29.8453 220.697,31.5682 219.045,31.9875 215.203,33.3092 209.709,34.7431 204.216,35.7986 198.722,36.5102 193.228,36.9108 187.734,37.0366 182.241,36.9258 176.747,36.6157 171.253,36.1406 165.759,35.53 160.266,34.8077 154.772,33.9907 149.278,33.0893 143.784,32.1057 143.184,31.9875 138.291,31.3188 132.797,30.5554 127.303,29.7806 121.809,28.9858 116.316,28.1537 110.822,27.2525 106.792,26.4938 105.328,26.3373 99.8344,25.7188 94.3406,25.1297 88.8469,24.5899 83.3531,24.1402" shape-rendering="crispEdges"/>
   <polygon fill="#00008f" points="160.04,114.394 160.266,111.354 160.455,108.9 163.192,103.406 165.759,100.719 168.555,97.9125 171.253,96.1772 176.747,92.7494 177.291,92.4188 182.241,90.28 187.734,87.8796 189.946,86.925 193.228,85.8377 198.722,84.1286 204.216,82.6015 209.709,82.0385 214.095,86.925 213.492,92.4188 211.688,97.9125 209.709,102.354 209.131,103.406 205.487,108.9 204.216,110.634 200.758,114.394 198.722,116.476 194.412,119.888 193.228,120.792 187.734,123.789 183.292,125.381 182.241,125.751 176.747,126.478 171.253,125.949 169.619,125.381 165.759,123.367 162.233,119.888 160.266,115.128" shape-rendering="crispEdges"/>
   <polygon fill="#ffef00" points="80.6816,21 83.3531,21 88.8469,21 94.3406,21 99.8344,21 105.328,21 110.822,21 116.316,21 121.809,21 127.303,21 132.797,21 138.291,21 143.784,21 149.278,21 154.772,21 160.266,21 165.759,21 171.253,21 176.747,21 182.241,21 187.734,21 193.228,21 198.722,21 204.216,21 209.709,21 215.203,21 220.697,21 226.191,21 231.684,21 237.178,21 242.672,21 245.343,21 242.672,24.3517 237.178,25.5241 232.938,26.4938 231.684,27.1015 226.191,29.0265 220.697,30.662 215.474,31.9875 215.203,32.0806 209.709,33.476 204.216,34.5034 198.722,35.1979 193.228,35.5918 187.734,35.7195 182.241,35.6174 176.747,35.3211 171.253,34.8632 165.759,34.2719 160.266,33.5696 154.772,32.7723 149.899,31.9875 149.278,31.9133 143.784,31.2108 138.291,30.4961 132.797,29.7707 127.303,29.0313 121.809,28.2683 116.316,27.463 110.822,26.5809 110.359,26.4938 105.328,25.956 99.8344,25.3818 94.3406,24.8348 88.8469,24.3335 83.3531,23.9159" shape-rendering="crispEdges"/>
   <polygon fill="#ffcf00" points="80.8871,21 83.3531,21 88.8469,21 94.3406,21 99.8344,21 105.328,21 110.822,21 116.316,21 121.809,21 127.303,21 132.797,21 138.291,21 143.784,21 149.278,21 154.772,21 160.266,21 165.759,21 171.253,21 176.747,21 182.241,21 187.734,21 193.228,21 198.722,21 204.216,21 209.709,21 215.203,21 220.697,21 226.191,21 231.684,21 237.178,21 242.672,21 245.138,21 242.672,24.0939 237.178,25.1761 231.684,26.4144 231.259,26.4938 226.191,28.2077 220.697,29.7557 215.203,31.0774 210.583,31.9875 209.709,32.209 204.216,33.2082 198.722,33.8857 193.228,34.2728 187.734,34.4024 182.241,34.309 176.747,34.0264 171.253,33.5858 165.759,33.0139 160.266,32.3316 157.856,31.9875 154.772,31.6508 149.278,31.0092 143.784,30.348 138.291,29.6733 132.797,28.986 127.303,28.282 121.809,27.5508 116.316,26.7722 114.576,26.4938 110.822,26.1223 105.328,25.5748 99.8344,25.0447 94.3406,24.5398 88.8469,24.0771 83.3531,23.6916" shape-rendering="crispEdges"/>
   <polygon fill="#ffbf00" points="81.0926,21 83.3531,21 88.8469,21 94.3406,21 99.8344,21 105.328,21 110.822,21 116.316,21 121.809,21 127.303,21 132.797,21 138.291,21 143.784,21 149.278,21 154.772,21 160.266,21 165.759,21 171.253,21 176.747,21 182.241,21 187.734,21 193.228,21 198.722,21 204.216,21 209.709,21 215.203,21 220.697,21 226.191,21 231.684,21 237.178,21 242.672,21 244.932,21 242.672,23.8361 237.178,24.8281 231.684,25.9632 228.838,26.4938 226.191,27.3889 220.697,28.8495 215.203,30.0926 209.709,31.122 204.216,31.9244 203.588,31.9875 198.722,32.5735 193.228,32.9538 187.734,33.0853 182.241,33.0006 176.747,32.7318 171.253,32.3085 168.083,31.9875 165.759,31.7982 160.266,31.2744 154.772,30.7048 149.278,30.1051 143.784,29.4853 138.291,28.8506 132.797,28.2014 127.303,27.5328 121.809,26.8333 119.38,26.4938 116.316,26.211 110.822,25.6954 105.328,25.1936 99.8344,24.7077 94.3406,24.2448 88.8469,23.8206 83.3531,23.4673" shape-rendering="crispEdges"/>
   <polygon fill="#ff8f00" points="81.2981,21 83.3531,21 88.8469,21 94.3406,21 99.8344,21 105.328,21 110.822,21 116.316,21 121.809,21 127.303,21 132.797,21 138.291,21 143.784,21 149.278,21 154.772,21 160.266,21 165.759,21 171.253,21 176.747,21 182.241,21 187.734,21 193.228,21 198.722,21 204.216,21 209.709,21 215.203,21 220.697,21 226.191,21 231.684,21 237.178,21 242.672,21 244.727,21 242.672,23.5783 237.178,24.48 231.684,25.512 226.416,26.4938 226.191,26.5701 220.697,27.9433 215.203,29.1078 209.709,30.0731 204.216,30.8283 198.722,31.3644 193.228,31.683 187.734,31.7982 182.241,31.7343 176.747,31.5212 171.253,31.1902 165.759,30.7705 160.266,30.2868 154.772,29.7588 149.278,29.201 143.784,28.6225 138.291,28.0278 132.797,27.4167 127.303,26.7835 124.977,26.4938 121.809,26.2189 116.316,25.7373 110.822,25.2686 105.328,24.8123 99.8344,24.3706 94.3406,23.9498 88.8469,23.5642 83.3531,23.243" shape-rendering="crispEdges"/>
   <polygon fill="#ff7f00" points="81.5036,21 83.3531,21 88.8469,21 94.3406,21 99.8344,21 105.328,21 110.822,21 116.316,21 121.809,21 127.303,21 132.797,21 138.291,21 143.784,21 149.278,21 154.772,21 160.266,21 165.759,21 171.253,21 176.747,21 182.241,21 187.734,21 193.228,21 198.722,21 204.216,21 209.709,21 215.203,21 220.697,21 226.191,21 231.684,21 237.178,21 242.672,21 244.521,21 242.672,23.3204 237.178,24.132 231.684,25.0608 226.191,25.9909 222.883,26.4938 220.697,27.037 215.203,28.123 209.709,29.0242 204.216,29.7322 198.722,30.2386 193.228,30.5443 187.734,30.6617 182.241,30.6126 176.747,30.4243 171.253,30.1254 165.759,29.7427 160.266,29.2991 154.772,28.8128 149.278,28.2969 143.784,27.7598 138.291,27.2051 132.797,26.632 131.571,26.4938 127.303,26.1433 121.809,25.697 116.316,25.2635 110.822,24.8417 105.328,24.4311 99.8344,24.0335 94.3406,23.6548 88.8469,23.3078 83.3531,23.0187" shape-rendering="crispEdges"/>
   <polygon fill="#ff5f00" points="81.7091,21 83.3531,21 88.8469,21 94.3406,21 99.8344,21 105.328,21 110.822,21 116.316,21 121.809,21 127.303,21 132.797,21 138.291,21 143.784,21 149.278,21 154.772,21 160.266,21 165.759,21 171.253,21 176.747,21 182.241,21 187.734,21 193.228,21 198.722,21 204.216,21 209.709,21 215.203,21 220.697,21 226.191,21 231.684,21 237.178,21 242.672,21 244.316,21 242.672,23.0626 237.178,23.7841 231.684,24.6096 226.191,25.4364 220.697,26.2318 218.611,26.4938 215.203,27.1383 209.709,27.9754 204.216,28.6361 198.722,29.1128 193.228,29.4056 187.734,29.5252 182.241,29.4909 176.747,29.3274 171.253,29.0606 165.759,28.715 160.266,28.3115 154.772,27.8668 149.278,27.3928 143.784,26.897 139.525,26.4938 138.291,26.4023 132.797,25.9808 127.303,25.5718 121.809,25.1751 116.316,24.7898 110.822,24.4148 105.328,24.0499 99.8344,23.6965 94.3406,23.3598 88.8469,23.0514 83.3531,22.7944" shape-rendering="crispEdges"/>
   <polygon fill="#ff3f00" points="81.9146,21 83.3531,21 88.8469,21 94.3406,21 99.8344,21 105.328,21 110.822,21 116.316,21 121.809,21 127.303,21 132.797,21 138.291,21 143.784,21 149.278,21 154.772,21 160.266,21 165.759,21 171.253,21 176.747,21 182.241,21 187.734,21 193.228,21 198.722,21 204.216,21 209.709,21 215.203,21 220.697,21 226.191,21 231.684,21 237.178,21 242.672,21 244.11,21 242.672,22.8048 237.178,23.436 231.684,24.1584 226.191,24.8818 220.697,25.5779 215.203,26.2353 212.699,26.4938 209.709,26.9265 204.216,27.54 198.722,27.987 193.228,28.2669 187.734,28.3886 182.241,28.3692 176.747,28.2305 171.253,27.9958 165.759,27.6873 160.266,27.3239 154.772,26.9208 149.345,26.4938 149.278,26.4894 143.784,26.1053 138.291,25.727 132.797,25.3582 127.303,25.0003 121.809,24.6532 116.316,24.3161 110.822,23.988 105.328,23.6686 99.8344,23.3594 94.3406,23.0649 88.8469,22.795 83.3531,22.5701" shape-rendering="crispEdges"/>
   <polygon fill="#ff0f00" points="82.1201,21 83.3531,21 88.8469,21 94.3406,21 99.8344,21 105.328,21 110.822,21 116.316,21 121.809,21 127.303,21 132.797,21 138.291,21 143.784,21 149.278,21 154.772,21 160.266,21 165.759,21 171.253,21 176.747,21 182.241,21 187.734,21 193.228,21 198.722,21 204.216,21 209.709,21 215.203,21 220.697,21 226.191,21 231.684,21 237.178,21 242.672,21 243.905,21 242.672,22.547 237.178,23.088 231.684,23.7072 226.191,24.3273 220.697,24.9239 215.203,25.4874 209.709,26.0039 204.216,26.4525 203.544,26.4938 198.722,26.8611 193.228,27.1281 187.734,27.2521 182.241,27.2475 176.747,27.1335 171.253,26.931 165.759,26.6595 162.997,26.4938 160.266,26.3515 154.772,26.0335 149.278,25.7052 143.784,25.376 138.291,25.0517 132.797,24.7356 127.303,24.4288 121.809,24.1313 116.316,23.8423 110.822,23.5611 105.328,23.2874 99.8344,23.0224 94.3406,22.7699 88.8469,22.5385 83.3531,22.3458" shape-rendering="crispEdges"/>
   <polygon fill="#ff0000" points="82.3256,21 83.3531,21 88.8469,21 94.3406,21 99.8344,21 105.328,21 110.822,21 116.316,21 121.809,21 127.303,21 132.797,21 138.291,21 143.784,21 149.278,21 154.772,21 160.266,21 165.759,21 171.253,21 176.747,21 182.241,21 187.734,21 193.228,21 198.722,21 204.216,21 209.709,21 215.203,21 220.697,21 226.191,21 231.684,21 237.178,21 242.672,21 243.699,21 242.672,22.2891 237.178,22.74 231.684,23.256 226.191,23.7727 220.697,24.2699 215.203,24.7395 209.709,25.1699 204.216,25.5437 198.722,25.8414 193.228,26.0467 187.734,26.1509 182.241,26.1555 176.747,26.0711 171.253,25.9144 165.759,25.7046 160.266,25.4596 154.772,25.1946 149.278,24.921 143.784,24.6467 138.291,24.3764 132.797,24.113 127.303,23.8574 121.809,23.6094 116.316,23.3686 110.822,23.1343 105.328,22.9062 99.8344,22.6853 94.3406,22.4749 88.8469,22.2821 83.3531,22.1215" shape-rendering="crispEdges"/>
   <polygon fill="#df0000" points="82.5311,21 83.3531,21 88.8469,21 94.3406,21 99.8344,21 105.328,21 110.822,21 116.316,21 121.809,21 127.303,21 132.797,21 138.291,21 143.784,21 149.278,21 154.772,21 160.266,21 165.759,21 171.253,21 176.747,21 182.241,21 187.734,21 193.228,21 198.722,21 204.216,21 209.709,21 215.203,21 220.697,21 226.191,21 231.684,21 237.178,21 242.672,21 243.494,21 242.672,22.0313 237.178,22.392 231.684,22.8048 226.191,23.2182 220.697,23.6159 215.203,23.9916 209.709,24.3359 204.216,24.635 198.722,24.8731 193.228,25.0374 187.734,25.1208 182.241,25.1244 176.747,25.0569 171.253,24.9315 165.759,24.7637 160.266,24.5677 154.772,24.3557 149.278,24.1368 143.784,23.9173 138.291,23.7012 132.797,23.4904 127.303,23.2859 121.809,23.0876 116.316,22.8949 110.822,22.7074 105.328,22.5249 99.8344,22.3482 94.3406,22.1799 88.8469,22.0257 83.3531,21.8972" shape-rendering="crispEdges"/>
   <polygon fill="#bf0000" points="82.7366,21 83.3531,21 88.8469,21 94.3406,21 99.8344,21 105.328,21 110.822,21 116.316,21 121.809,21 127.303,21 132.797,21 138.291,21 143.784,21 149.278,21 154.772,21 160.266,21 165.759,21 171.253,21 176.747,21 182.241,21 187.734,21 193.228,21 198.722,21 204.216,21 209.709,21 215.203,21 220.697,21 226.191,21 231.684,21 237.178,21 242.672,21 243.288,21 242.672,21.7735 237.178,22.044 231.684,22.3536 226.191,22.6636 220.697,22.9619 215.203,23.2437 209.709,23.5019 204.216,23.7262 198.722,23.9049 193.228,24.028 187.734,24.0906 182.241,24.0933 176.747,24.0426 171.253,23.9487 165.759,23.8228 160.266,23.6758 154.772,23.5168 149.278,23.3526 143.784,23.188 138.291,23.0259 132.797,22.8678 127.303,22.7144 121.809,22.5657 116.316,22.4212 110.822,22.2806 105.328,22.1437 99.8344,22.0112 94.3406,21.8849 88.8469,21.7693 83.3531,21.6729" shape-rendering="crispEdges"/>
   <polygon fill="#9f0000" points="82.9421,21 83.3531,21 88.8469,21 94.3406,21 99.8344,21 105.328,21 110.822,21 116.316,21 121.809,21 127.303,21 132.797,21 138.291,21 143.784,21 149.278,21 154.772,21 160.266,21 165.759,21 171.253,21 176.747,21 182.241,21 187.734,21 193.228,21 198.722,21 204.216,21 209.709,21 215.203,21 220.697,21 226.191,21 231.684,21 237.178,21 242.672,21 243.083,21 242.672,21.5157 237.178,21.696 231.684,21.9024 226.191,22.1091 220.697,22.308 215.203,22.4958 209.709,22.668 204.216,22.8175 198.722,22.9366 193.228,23.0187 187.734,23.0604 182.241,23.0622 176.747,23.0284 171.253,22.9658 165.759,22.8818 160.266,22.7838 154.772,22.6779 149.278,22.5684 143.784,22.4586 138.291,22.3506 132.797,22.2452 127.303,22.1429 121.809,22.0438 116.316,21.9474 110.822,21.8537 105.328,21.7625 99.8344,21.6741 94.3406,21.59 88.8469,21.5128 83.3531,21.4486" shape-rendering="crispEdges"/>
   <polygon fill="#0000ff" points="85.9319,37.4813 88.8469,35.8528 94.3406,37.2244 95.0807,37.4813 99.8344,41.8182 101.651,42.975 104.459,48.4688 99.8344,52.5599 94.3406,50.0714 92.9368,48.4688 88.8469,44.4222 88.0676,42.975" shape-rendering="crispEdges"/>
   <polygon fill="#7f0000" points="83.1476,21 83.3531,21 88.8469,21 94.3406,21 99.8344,21 105.328,21 110.822,21 116.316,21 121.809,21 127.303,21 132.797,21 138.291,21 143.784,21 149.278,21 154.772,21 160.266,21 165.759,21 171.253,21 176.747,21 182.241,21 187.734,21 193.228,21 198.722,21 204.216,21 209.709,21 215.203,21 220.697,21 226.191,21 231.684,21 237.178,21 242.672,21 242.877,21 242.672,21.2578 237.178,21.348 231.684,21.4512 226.191,21.5545 220.697,21.654 215.203,21.7479 209.709,21.834 204.216,21.9087 198.722,21.9683 193.228,22.0094 187.734,22.0302 182.241,22.0311 176.747,22.0142 171.253,21.9829 165.759,21.9409 160.266,21.8919 154.772,21.8389 149.278,21.7842 143.784,21.7293 138.291,21.6753 132.797,21.6226 127.303,21.5715 121.809,21.5219 116.316,21.4737 110.822,21.4268 105.328,21.3812 99.8344,21.3371 94.3406,21.295 88.8469,21.2564 83.3531,21.2243" shape-rendering="crispEdges"/>
   <polyline stroke="#262626" fill="none" stroke-linejoin="miter" points="77.8594,191.306 77.8594,188.861" stroke-width="1.5" stroke-linecap="butt"/>
   <polyline stroke="#262626" fill="none" stroke-linejoin="miter" points="77.8594,21 77.8594,23.4456" stroke-width="1.5" stroke-linecap="butt"/>
   <polyline stroke="#262626" fill="none" stroke-linejoin="miter" points="111.921,191.306 111.921,188.861" stroke-width="1.5" stroke-linecap="butt"/>
   <polyline stroke="#262626" fill="none" stroke-linejoin="miter" points="111.921,21 111.921,23.4456" stroke-width="1.5" stroke-linecap="butt"/>
   <polyline stroke="#262626" fill="none" stroke-linejoin="miter" points="145.982,191.306 145.982,188.861" stroke-width="1.5" stroke-linecap="butt"/>
   <polyline stroke="#262626" fill="none" stroke-linejoin="miter" points="145.982,21 145.982,23.4456" stroke-width="1.5" stroke-linecap="butt"/>
   <polyline stroke="#262626" fill="none" stroke-linejoin="miter" points="180.043,191.306 180.043,188.861" stroke-width="1.5" stroke-linecap="butt"/>
   <polyline stroke="#262626" fill="none" stroke-linejoin="miter" points="180.043,21 180.043,23.4456" stroke-width="1.5" stroke-linecap="butt"/>
   <polyline stroke="#262626" fill="none" stroke-linejoin="miter" points="214.104,191.306 214.104,188.861" stroke-width="1.5" stroke-linecap="butt"/>
   <polyline stroke="#262626" fill="none" stroke-linejoin="miter" points="214.104,21 214.104,23.4456" stroke-width="1.5" stroke-linecap="butt"/>
   <polyline stroke="#262626" fill="none" stroke-linejoin="miter" points="248.166,191.306 248.166,188.861" stroke-width="1.5" stroke-linecap="butt"/>
   <polyline stroke="#262626" fill="none" stroke-linejoin="miter" points="248.166,21 248.166,23.4456" stroke-width="1.5" stroke-linecap="butt"/>
   <text transform="translate(75.3594,206.068) rotate(-0,2.5,-8)" font-family="FreeSans" font-style="normal" xml:space="preserve" font-weight="bold" font-size="9">
    <tspan y="-0" fill="rgb(38,38,38)" x="0 ">0</tspan>
   </text>
   <text transform="translate(105.921,206.068) rotate(-0,6,-8)" font-family="FreeSans" font-style="normal" xml:space="preserve" font-weight="bold" font-size="9">
    <tspan y="-0" fill="rgb(38,38,38)" x="0 5 7 ">0.2</tspan>
   </text>
   <text transform="translate(139.982,206.068) rotate(-0,6,-8)" font-family="FreeSans" font-style="normal" xml:space="preserve" font-weight="bold" font-size="9">
    <tspan y="-0" fill="rgb(38,38,38)" x="0 5 7 ">0.4</tspan>
   </text>
   <text transform="translate(174.043,206.068) rotate(-0,6,-8)" font-family="FreeSans" font-style="normal" xml:space="preserve" font-weight="bold" font-size="9">
    <tspan y="-0" fill="rgb(38,38,38)" x="0 5 7 ">0.6</tspan>
   </text>
   <text transform="translate(208.104,206.068) rotate(-0,6,-8)" font-family="FreeSans" font-style="normal" xml:space="preserve" font-weight="bold" font-size="9">
    <tspan y="-0" fill="rgb(38,38,38)" x="0 5 7 ">0.8</tspan>
   </text>
   <text transform="translate(245.666,206.068) rotate(-0,2.5,-8)" font-family="FreeSans" font-style="normal" xml:space="preserve" font-weight="bold" font-size="9">
    <tspan y="-0" fill="rgb(38,38,38)" x="0 ">1</tspan>
   </text>
   <polyline stroke="#262626" fill="none" stroke-linejoin="miter" points="77.8594,191.306 80.305,191.306" stroke-width="1.5" stroke-linecap="butt"/>
   <polyline stroke="#262626" fill="none" stroke-linejoin="miter" points="248.166,191.306 245.72,191.306" stroke-width="1.5" stroke-linecap="butt"/>
   <polyline stroke="#262626" fill="none" stroke-linejoin="miter" points="77.8594,157.245 80.305,157.245" stroke-width="1.5" stroke-linecap="butt"/>
   <polyline stroke="#262626" fill="none" stroke-linejoin="miter" points="248.166,157.245 245.72,157.245" stroke-width="1.5" stroke-linecap="butt"/>
   <polyline stroke="#262626" fill="none" stroke-linejoin="miter" points="77.8594,123.184 80.305,123.184" stroke-width="1.5" stroke-linecap="butt"/>
   <polyline stroke="#262626" fill="none" stroke-linejoin="miter" points="248.166,123.184 245.72,123.184" stroke-width="1.5" stroke-linecap="butt"/>
   <polyline stroke="#262626" fill="none" stroke-linejoin="miter" points="77.8594,89.1225 80.305,89.1225" stroke-width="1.5" stroke-linecap="butt"/>
   <polyline stroke="#262626" fill="none" stroke-linejoin="miter" points="248.166,89.1225 245.72,89.1225" stroke-width="1.5" stroke-linecap="butt"/>
   <polyline stroke="#262626" fill="none" stroke-linejoin="miter" points="77.8594,55.0612 80.305,55.0612" stroke-width="1.5" stroke-linecap="butt"/>
   <polyline stroke="#262626" fill="none" stroke-linejoin="miter" points="248.166,55.0612 245.72,55.0612" stroke-width="1.5" stroke-linecap="butt"/>
   <polyline stroke="#262626" fill="none" stroke-linejoin="miter" points="77.8594,21 80.305,21" stroke-width="1.5" stroke-linecap="butt"/>
   <polyline stroke="#262626" fill="none" stroke-linejoin="miter" points="248.166,21 245.72,21" stroke-width="1.5" stroke-linecap="butt"/>
   <text transform="translate(68.3513,195.306) rotate(-0,5,-4)" font-family="FreeSans" font-style="normal" xml:space="preserve" font-weight="bold" font-size="9">
    <tspan y="-0" fill="rgb(38,38,38)" x="0 ">0</tspan>
   </text>
   <text transform="translate(61.3513,161.245) rotate(-0,12,-4)" font-family="FreeSans" font-style="normal" xml:space="preserve" font-weight="bold" font-size="9">
    <tspan y="-0" fill="rgb(38,38,38)" x="0 5 7 ">0.2</tspan>
   </text>
   <text transform="translate(61.3513,127.184) rotate(-0,12,-4)" font-family="FreeSans" font-style="normal" xml:space="preserve" font-weight="bold" font-size="9">
    <tspan y="-0" fill="rgb(38,38,38)" x="0 5 7 ">0.4</tspan>
   </text>
   <text transform="translate(61.3513,93.1225) rotate(-0,12,-4)" font-family="FreeSans" font-style="normal" xml:space="preserve" font-weight="bold" font-size="9">
    <tspan y="-0" fill="rgb(38,38,38)" x="0 5 7 ">0.6</tspan>
   </text>
   <text transform="translate(61.3513,59.0613) rotate(-0,12,-4)" font-family="FreeSans" font-style="normal" xml:space="preserve" font-weight="bold" font-size="9">
    <tspan y="-0" fill="rgb(38,38,38)" x="0 5 7 ">0.8</tspan>
   </text>
   <text transform="translate(68.3513,25) rotate(-0,5,-4)" font-family="FreeSans" font-style="normal" xml:space="preserve" font-weight="bold" font-size="9">
    <tspan y="-0" fill="rgb(38,38,38)" x="0 ">1</tspan>
   </text>
   <polyline stroke="#262626" fill="none" stroke-linejoin="miter" stroke-dasharray="32,0" points="77.8594,191.306 248.166,191.306" stroke-width="1.5" stroke-linecap="square"/>
   <polyline stroke="#262626" fill="none" stroke-linejoin="miter" stroke-dasharray="32,0" points="77.8594,21 248.166,21" stroke-width="1.5" stroke-linecap="square"/>
   <polyline stroke="#262626" fill="none" stroke-linejoin="miter" stroke-dasharray="32,0" points="77.8594,191.306 77.8594,21" stroke-width="1.5" stroke-linecap="square"/>
   <polyline stroke="#262626" fill="none" stroke-linejoin="miter" stroke-dasharray="32,0" points="248.166,191.306 248.166,21" stroke-width="1.5" stroke-linecap="square"/>
  </g>
 </g>
</svg>
