<?xml version="1.0" encoding="UTF-8" standalone="no"?>
<!DOCTYPE svg PUBLIC "-//W3C//DTD SVG 1.1//EN" "http://www.w3.org/Graphics/SVG/1.1/DTD/svg11.dtd">
<svg xmlns="http://www.w3.org/2000/svg" xmlns:xlink="http://www.w3.org/1999/xlink" version="1.1" width="296.763pt" height="298.589pt" viewBox="0 0 296.763 298.589">
<g enable-background="new">
<path transform="matrix(1,0,0,-1,45.818,274.416)" stroke-width=".3985" stroke-linecap="butt" stroke-miterlimit="10" stroke-linejoin="miter" fill="none" stroke="#000000" d="M 0 0 L 0 226.77448 L 226.77448 226.77448 L 226.77448 0 Z M 226.77448 226.77448 "/>
<path transform="matrix(1,0,0,-1,45.818,274.416)" stroke-width=".3985" stroke-linecap="butt" stroke-miterlimit="10" stroke-linejoin="miter" fill="none" stroke="#000000" d="M 0 0 L 53.10707 0 "/>
<path transform="matrix(1,0,0,-1,98.92507,274.416)" d="M 3.58653 0 C 2.52383 .19925 .797 .797 -.3985 1.49438 L -.3985 -1.49438 C .797 -.797 2.52383 -.19925 3.58653 0 "/>
<text xml:space="preserve" transform="matrix(1 0 -0 1 .0000076293949 298.589)" font-size="11.9552" font-family="CMMI12" font-style="italic"><tspan y="-27.693" x="92.339">x</tspan></text>
<path transform="matrix(1,0,0,-1,45.818,274.416)" stroke-width=".3985" stroke-linecap="butt" stroke-miterlimit="10" stroke-linejoin="miter" fill="none" stroke="#000000" d="M 0 0 L 0 53.10707 "/>
<path transform="matrix(0,-1,-1,-0,45.818,221.30892)" d="M 3.58653 0 C 2.52383 .19925 .797 .797 -.3985 1.49438 L -.3985 -1.49438 C .797 -.797 2.52383 -.19925 3.58653 0 "/>
<text xml:space="preserve" transform="matrix(1 0 -0 1 0 298.589)" font-size="11.9552" font-family="CMMI12" font-style="italic"><tspan y="-72.199" x="49.338">y</tspan></text>
<path transform="matrix(1,0,0,-1,45.818,274.416)" stroke-width=".00995" stroke-linecap="butt" stroke-miterlimit="10" stroke-linejoin="miter" fill="none" stroke="#a9a9a9" d="M -28.3468 0 L 85.04042 0 "/>
<path transform="matrix(1,0,0,-1,45.818,274.416)" stroke-width=".00995" stroke-linecap="butt" stroke-miterlimit="10" stroke-linejoin="miter" fill="none" stroke="#a9a9a9" d="M -28.3468 226.77448 L 85.04042 226.77448 "/>
<path transform="matrix(1,0,0,-1,45.818,274.416)" stroke-width=".3985" stroke-linecap="butt" stroke-miterlimit="10" stroke-linejoin="miter" fill="none" stroke="#000000" d="M -28.3468 1.99252 L -28.3468 224.78195 "/>
<path transform="matrix(0,1,1,0,17.4712,272.42347)" stroke-width=".19925" stroke-linecap="butt" stroke-miterlimit="10" stroke-linejoin="miter" fill="none" stroke="#000000" d="M 1.89288 1.19551 L 1.89288 -1.19551 "/>
<path transform="matrix(0,1,1,0,17.4712,272.42347)" d="M 1.79326 0 L -1.19551 .797 L -1.19551 -.797 Z "/>
<path transform="matrix(0,1,1,0,17.4712,272.42347)" stroke-width=".00995" stroke-linecap="butt" stroke-miterlimit="10" stroke-linejoin="miter" fill="none" stroke="#000000" d="M 1.79326 0 L -1.19551 .797 L -1.19551 -.797 Z "/>
<path transform="matrix(0,-1,-1,-0,17.4712,49.634035)" stroke-width=".19925" stroke-linecap="butt" stroke-miterlimit="10" stroke-linejoin="miter" fill="none" stroke="#000000" d="M 1.89288 1.19551 L 1.89288 -1.19551 "/>
<path transform="matrix(0,-1,-1,-0,17.4712,49.634035)" d="M 1.79326 0 L -1.19551 .797 L -1.19551 -.797 Z "/>
<path transform="matrix(0,-1,-1,-0,17.4712,49.634035)" stroke-width=".00995" stroke-linecap="butt" stroke-miterlimit="10" stroke-linejoin="miter" fill="none" stroke="#000000" d="M 1.79326 0 L -1.19551 .797 L -1.19551 -.797 Z "/>
<path transform="matrix(1,0,0,-1,45.818,274.416)" d="M -35.81851 142.51111 L -35.81851 84.26335 L -20.87509 84.26335 L -20.87509 142.51111 Z M -20.87509 84.26335 " fill="#ffffff"/>
<text xml:space="preserve" transform="matrix(0 -1 1 0 133.379 208.45598)" font-size="11.9552" font-family="CMMI12" font-style="italic"><tspan y="-111.756" x="21.623">d</tspan></text>
<text xml:space="preserve" transform="matrix(0 -1 1 0 133.379 208.45598)" font-size="11.9552" font-family="CMR12"><tspan y="-111.756" x="31.606999 44.614259 50.472307 53.72412 63.49152">=0.1m</tspan></text>
<path transform="matrix(1,0,0,-1,45.818,274.416)" stroke-width=".3985" stroke-linecap="butt" stroke-miterlimit="10" stroke-linejoin="miter" fill="none" stroke="#000000" d="M 85.04042 240.94788 L 138.1475 240.94788 "/>
<path transform="matrix(1,0,0,-1,183.96552,33.46811)" d="M 3.58653 0 C 2.52383 .19925 .797 .797 -.3985 1.49438 L -.3985 -1.49438 C .797 -.797 2.52383 -.19925 3.58653 0 "/>
<text xml:space="preserve" transform="matrix(1 0 -0 1 .000015258789 298.589)" font-size="11.9552" font-family="CMMI12" font-style="italic"><tspan y="-276.302" x="129.152">U</tspan></text>
<text xml:space="preserve" transform="matrix(1 0 -0 1 .000015258789 298.589)" font-size="7.9701" font-family="CMMI8" font-style="italic"><tspan y="-274.509" x="137.10199">x</tspan></text>
<text xml:space="preserve" transform="matrix(1 0 -0 1 .000015258789 298.589)" font-size="11.9552" font-family="CMR12"><tspan y="-276.302" x="146.26898 159.27625 169.04364 178.79909 184.65714">=1m/s</tspan></text>
<path transform="matrix(1,0,0,-1,45.818,274.416)" d="M -14.17339 0 L -14.17339 226.77448 L 0 226.77448 L 0 0 Z M 0 226.77448 " fill-opacity=".75"/>
<path transform="matrix(1,0,0,-1,45.818,274.416)" d="M -14.17339 -14.17339 L -14.17339 0 L 240.94788 0 L 240.94788 -14.17339 Z M 240.94788 0 " fill-opacity=".75"/>
<path transform="matrix(1,0,0,-1,45.818,274.416)" d="M 226.77448 0 L 226.77448 226.77448 L 240.94788 226.77448 L 240.94788 0 Z M 240.94788 226.77448 " fill-opacity=".75"/>
</g>
</svg>
