<?xml version="1.0" encoding="UTF-8" standalone="no"?>
<!DOCTYPE svg PUBLIC "-//W3C//DTD SVG 1.1//EN" "http://www.w3.org/Graphics/SVG/1.1/DTD/svg11.dtd">
<svg xmlns="http://www.w3.org/2000/svg" xmlns:xlink="http://www.w3.org/1999/xlink" version="1.1" width="441.954pt" height="277.254pt" viewBox="0 0 441.954 277.254">
<g enable-background="new">
<path transform="matrix(1,0,0,-1,107.591,236.971)" stroke-width=".3985" stroke-linecap="butt" stroke-miterlimit="10" stroke-linejoin="miter" fill="none" stroke="#000000" d="M 0 0 L 0 226.77448 L 226.77448 226.77448 L 226.77448 0 Z M 226.77448 226.77448 "/>
<path transform="matrix(1,0,0,-1,107.591,236.971)" stroke-width=".3985" stroke-linecap="butt" stroke-miterlimit="10" stroke-linejoin="miter" fill="none" stroke="#000000" d="M 141.73404 113.38724 C 141.73404 129.04294 129.04294 141.73404 113.38724 141.73404 C 97.73152 141.73404 85.04042 129.04294 85.04042 113.38724 C 85.04042 97.73152 97.73152 85.04042 113.38724 85.04042 C 129.04294 85.04042 141.73404 97.73152 141.73404 113.38724 Z M 113.38724 113.38724 "/>
<path transform="matrix(1,0,0,-1,107.591,236.971)" stroke-width=".3985" stroke-linecap="butt" stroke-miterlimit="10" stroke-linejoin="miter" fill="none" stroke="#000000" d="M 113.38724 113.38724 L 123.97409 113.38724 "/>
<path transform="matrix(1,0,0,-1,231.5651,123.583759)" d="M 3.58653 0 C 2.52383 .19925 .797 .797 -.3985 1.49438 L -.3985 -1.49438 C .797 -.797 2.52383 -.19925 3.58653 0 "/>
<text xml:space="preserve" transform="matrix(1 0 -0 1 0 277.25398)" font-size="11.9552" font-family="CMMI12" font-style="italic"><tspan y="-145.002" x="238.67">x</tspan></text>
<path transform="matrix(1,0,0,-1,107.591,236.971)" stroke-width=".3985" stroke-linecap="butt" stroke-miterlimit="10" stroke-linejoin="miter" fill="none" stroke="#000000" d="M 113.38724 113.38724 L 113.38724 123.97409 "/>
<path transform="matrix(0,-1,-1,-0,220.97824,112.9969)" d="M 3.58653 0 C 2.52383 .19925 .797 .797 -.3985 1.49438 L -.3985 -1.49438 C .797 -.797 2.52383 -.19925 3.58653 0 "/>
<text xml:space="preserve" transform="matrix(1 0 -0 1 .000015258789 277.25398)" font-size="11.9552" font-family="CMMI12" font-style="italic"><tspan y="-173.687" x="211.321">y</tspan></text>
<path transform="matrix(1,0,0,-1,107.591,236.971)" stroke-width=".3985" stroke-linecap="butt" stroke-dasharray="2.98883,2.98883" stroke-miterlimit="10" stroke-linejoin="miter" fill="none" stroke="#000000" d="M 113.38724 0 L 113.38724 226.77448 "/>
<text xml:space="preserve" transform="matrix(0 -1 1 0 246.12001 496.732)" font-size="11.9552" font-family="CMR12"><tspan y="-13.321" x="261.411 266.02574 272.20658 281.962 291.71745 296.91795 301.47288 306.0278 316.10606 322.60969 325.86149 331.71955 338.22319">symmetryplane</tspan></text>
<path transform="matrix(1,0,0,-1,107.591,236.971)" stroke-width=".3985" stroke-linecap="butt" stroke-dasharray="2.98883,2.98883" stroke-miterlimit="10" stroke-linejoin="miter" fill="none" stroke="#000000" d="M 0 113.38724 L 226.77448 113.38724 "/>
<text xml:space="preserve" transform="matrix(1 0 -0 1 .0000076293949 277.25398)" font-size="11.9552" font-family="CMR12"><tspan y="-141.847" x="109.24 113.854709 120.035549 129.79099 139.54644 144.74695 149.30188 153.85681 163.93505 170.43868 173.69049 179.54854 186.05217">symmetryplane</tspan></text>
<path transform="matrix(1,0,0,-1,107.591,236.971)" stroke-width=".00995" stroke-linecap="butt" stroke-miterlimit="10" stroke-linejoin="miter" fill="none" stroke="#a9a9a9" d="M 0 -14.17339 L 0 99.21384 "/>
<path transform="matrix(1,0,0,-1,107.591,236.971)" stroke-width=".00995" stroke-linecap="butt" stroke-miterlimit="10" stroke-linejoin="miter" fill="none" stroke="#a9a9a9" d="M 226.77448 -14.17339 L 226.77448 99.21384 "/>
<path transform="matrix(1,0,0,-1,107.591,236.971)" stroke-width=".3985" stroke-linecap="butt" stroke-miterlimit="10" stroke-linejoin="miter" fill="none" stroke="#000000" d="M 1.99252 -14.17339 L 224.78195 -14.17339 "/>
<path transform="matrix(-1,-0,0,1,109.58353,251.14438)" stroke-width=".19925" stroke-linecap="butt" stroke-miterlimit="10" stroke-linejoin="miter" fill="none" stroke="#000000" d="M 1.89288 1.19551 L 1.89288 -1.19551 "/>
<path transform="matrix(-1,-0,0,1,109.58353,251.14438)" d="M 1.79326 0 L -1.19551 .797 L -1.19551 -.797 Z "/>
<path transform="matrix(-1,-0,0,1,109.58353,251.14438)" stroke-width=".00995" stroke-linecap="butt" stroke-miterlimit="10" stroke-linejoin="miter" fill="none" stroke="#000000" d="M 1.79326 0 L -1.19551 .797 L -1.19551 -.797 Z "/>
<path transform="matrix(1,0,0,-1,332.37297,251.14438)" stroke-width=".19925" stroke-linecap="butt" stroke-miterlimit="10" stroke-linejoin="miter" fill="none" stroke="#000000" d="M 1.89288 1.19551 L 1.89288 -1.19551 "/>
<path transform="matrix(1,0,0,-1,332.37297,251.14438)" d="M 1.79326 0 L -1.19551 .797 L -1.19551 -.797 Z "/>
<path transform="matrix(1,0,0,-1,332.37297,251.14438)" stroke-width=".00995" stroke-linecap="butt" stroke-miterlimit="10" stroke-linejoin="miter" fill="none" stroke="#000000" d="M 1.79326 0 L -1.19551 .797 L -1.19551 -.797 Z "/>
<path transform="matrix(1,0,0,-1,107.591,236.971)" d="M 95.75917 -21.34622 L 131.01529 -21.34622 L 131.01529 -7.00058 L 95.75917 -7.00058 Z " fill="#ffffff"/>
<text xml:space="preserve" transform="matrix(1 0 -0 1 .000015258789 277.254)" font-size="11.9552" font-family="CMR12"><tspan y="-22.258" x="206.67 212.52805 215.77986 225.53531">4.0m</tspan></text>
<path transform="matrix(1,0,0,-1,107.591,236.971)" stroke-width=".3985" stroke-linecap="butt" stroke-miterlimit="10" stroke-linejoin="miter" fill="none" stroke="#000000" d="M 95.87906 95.87906 L 110.85117 110.85117 "/>
<path transform="matrix(-.7071,.7071,.7071,.7071,203.47006,141.09194)" d="M 3.58653 0 C 2.52383 .19925 .797 .797 -.3985 1.49438 L -.3985 -1.49438 C .797 -.797 2.52383 -.19925 3.58653 0 "/>
<path transform="matrix(.7071,-.7071,-.7071,-.7071,218.44217,126.11982)" d="M 3.58653 0 C 2.52383 .19925 .797 .797 -.3985 1.49438 L -.3985 -1.49438 C .797 -.797 2.52383 -.19925 3.58653 0 "/>
<path transform="matrix(1,0,0,-1,107.591,236.971)" stroke-width=".3985" stroke-linecap="butt" stroke-miterlimit="10" stroke-linejoin="miter" fill="none" stroke="#000000" d="M 226.77448 0 L 251.53475 0 "/>
<path transform="matrix(1,0,0,-1,359.12574,236.971)" d="M 3.58653 0 C 2.52383 .19925 .797 .797 -.3985 1.49438 L -.3985 -1.49438 C .797 -.797 2.52383 -.19925 3.58653 0 "/>
<path transform="matrix(1,0,0,-1,107.591,236.971)" stroke-width=".3985" stroke-linecap="butt" stroke-miterlimit="10" stroke-linejoin="miter" fill="none" stroke="#000000" d="M 226.77448 28.3468 L 251.53475 28.3468 "/>
<path transform="matrix(1,0,0,-1,359.12574,208.62419)" d="M 3.58653 0 C 2.52383 .19925 .797 .797 -.3985 1.49438 L -.3985 -1.49438 C .797 -.797 2.52383 -.19925 3.58653 0 "/>
<path transform="matrix(1,0,0,-1,107.591,236.971)" stroke-width=".3985" stroke-linecap="butt" stroke-miterlimit="10" stroke-linejoin="miter" fill="none" stroke="#000000" d="M 226.77448 56.69362 L 251.53475 56.69362 "/>
<path transform="matrix(1,0,0,-1,359.12574,180.27738)" d="M 3.58653 0 C 2.52383 .19925 .797 .797 -.3985 1.49438 L -.3985 -1.49438 C .797 -.797 2.52383 -.19925 3.58653 0 "/>
<path transform="matrix(1,0,0,-1,107.591,236.971)" stroke-width=".3985" stroke-linecap="butt" stroke-miterlimit="10" stroke-linejoin="miter" fill="none" stroke="#000000" d="M 226.77448 85.04042 L 251.53475 85.04042 "/>
<path transform="matrix(1,0,0,-1,359.12574,151.93058)" d="M 3.58653 0 C 2.52383 .19925 .797 .797 -.3985 1.49438 L -.3985 -1.49438 C .797 -.797 2.52383 -.19925 3.58653 0 "/>
<path transform="matrix(1,0,0,-1,107.591,236.971)" stroke-width=".3985" stroke-linecap="butt" stroke-miterlimit="10" stroke-linejoin="miter" fill="none" stroke="#000000" d="M 226.77448 113.38724 L 251.53475 113.38724 "/>
<path transform="matrix(1,0,0,-1,359.12574,123.583759)" d="M 3.58653 0 C 2.52383 .19925 .797 .797 -.3985 1.49438 L -.3985 -1.49438 C .797 -.797 2.52383 -.19925 3.58653 0 "/>
<path transform="matrix(1,0,0,-1,107.591,236.971)" stroke-width=".3985" stroke-linecap="butt" stroke-miterlimit="10" stroke-linejoin="miter" fill="none" stroke="#000000" d="M 226.77448 141.73404 L 251.53475 141.73404 "/>
<path transform="matrix(1,0,0,-1,359.12574,95.23695)" d="M 3.58653 0 C 2.52383 .19925 .797 .797 -.3985 1.49438 L -.3985 -1.49438 C .797 -.797 2.52383 -.19925 3.58653 0 "/>
<path transform="matrix(1,0,0,-1,107.591,236.971)" stroke-width=".3985" stroke-linecap="butt" stroke-miterlimit="10" stroke-linejoin="miter" fill="none" stroke="#000000" d="M 226.77448 170.08086 L 251.53475 170.08086 "/>
<path transform="matrix(1,0,0,-1,359.12574,66.89014)" d="M 3.58653 0 C 2.52383 .19925 .797 .797 -.3985 1.49438 L -.3985 -1.49438 C .797 -.797 2.52383 -.19925 3.58653 0 "/>
<path transform="matrix(1,0,0,-1,107.591,236.971)" stroke-width=".3985" stroke-linecap="butt" stroke-miterlimit="10" stroke-linejoin="miter" fill="none" stroke="#000000" d="M 226.77448 198.42766 L 251.53475 198.42766 "/>
<path transform="matrix(1,0,0,-1,359.12574,38.543336)" d="M 3.58653 0 C 2.52383 .19925 .797 .797 -.3985 1.49438 L -.3985 -1.49438 C .797 -.797 2.52383 -.19925 3.58653 0 "/>
<path transform="matrix(1,0,0,-1,107.591,236.971)" stroke-width=".3985" stroke-linecap="butt" stroke-miterlimit="10" stroke-linejoin="miter" fill="none" stroke="#000000" d="M 226.77448 226.77448 L 251.53475 226.77448 "/>
<path transform="matrix(1,0,0,-1,359.12574,10.196518)" d="M 3.58653 0 C 2.52383 .19925 .797 .797 -.3985 1.49438 L -.3985 -1.49438 C .797 -.797 2.52383 -.19925 3.58653 0 "/>
<path transform="matrix(1,0,0,-1,107.591,236.971)" stroke-width=".3985" stroke-linecap="butt" stroke-miterlimit="10" stroke-linejoin="miter" fill="none" stroke="#000000" d="M 0 0 L -24.76025 0 "/>
<path transform="matrix(-1,-0,0,1,82.83075,236.971)" d="M 3.58653 0 C 2.52383 .19925 .797 .797 -.3985 1.49438 L -.3985 -1.49438 C .797 -.797 2.52383 -.19925 3.58653 0 "/>
<path transform="matrix(1,0,0,-1,107.591,236.971)" stroke-width=".3985" stroke-linecap="butt" stroke-miterlimit="10" stroke-linejoin="miter" fill="none" stroke="#000000" d="M 0 28.3468 L -24.76025 28.3468 "/>
<path transform="matrix(-1,-0,0,1,82.83075,208.62419)" d="M 3.58653 0 C 2.52383 .19925 .797 .797 -.3985 1.49438 L -.3985 -1.49438 C .797 -.797 2.52383 -.19925 3.58653 0 "/>
<path transform="matrix(1,0,0,-1,107.591,236.971)" stroke-width=".3985" stroke-linecap="butt" stroke-miterlimit="10" stroke-linejoin="miter" fill="none" stroke="#000000" d="M 0 56.69362 L -24.76025 56.69362 "/>
<path transform="matrix(-1,-0,0,1,82.83075,180.27738)" d="M 3.58653 0 C 2.52383 .19925 .797 .797 -.3985 1.49438 L -.3985 -1.49438 C .797 -.797 2.52383 -.19925 3.58653 0 "/>
<path transform="matrix(1,0,0,-1,107.591,236.971)" stroke-width=".3985" stroke-linecap="butt" stroke-miterlimit="10" stroke-linejoin="miter" fill="none" stroke="#000000" d="M 0 85.04042 L -24.76025 85.04042 "/>
<path transform="matrix(-1,-0,0,1,82.83075,151.93058)" d="M 3.58653 0 C 2.52383 .19925 .797 .797 -.3985 1.49438 L -.3985 -1.49438 C .797 -.797 2.52383 -.19925 3.58653 0 "/>
<path transform="matrix(1,0,0,-1,107.591,236.971)" stroke-width=".3985" stroke-linecap="butt" stroke-miterlimit="10" stroke-linejoin="miter" fill="none" stroke="#000000" d="M 0 113.38724 L -24.76025 113.38724 "/>
<path transform="matrix(-1,-0,0,1,82.83075,123.583759)" d="M 3.58653 0 C 2.52383 .19925 .797 .797 -.3985 1.49438 L -.3985 -1.49438 C .797 -.797 2.52383 -.19925 3.58653 0 "/>
<path transform="matrix(1,0,0,-1,107.591,236.971)" stroke-width=".3985" stroke-linecap="butt" stroke-miterlimit="10" stroke-linejoin="miter" fill="none" stroke="#000000" d="M 0 141.73404 L -24.76025 141.73404 "/>
<path transform="matrix(-1,-0,0,1,82.83075,95.23695)" d="M 3.58653 0 C 2.52383 .19925 .797 .797 -.3985 1.49438 L -.3985 -1.49438 C .797 -.797 2.52383 -.19925 3.58653 0 "/>
<path transform="matrix(1,0,0,-1,107.591,236.971)" stroke-width=".3985" stroke-linecap="butt" stroke-miterlimit="10" stroke-linejoin="miter" fill="none" stroke="#000000" d="M 0 170.08086 L -24.76025 170.08086 "/>
<path transform="matrix(-1,-0,0,1,82.83075,66.89014)" d="M 3.58653 0 C 2.52383 .19925 .797 .797 -.3985 1.49438 L -.3985 -1.49438 C .797 -.797 2.52383 -.19925 3.58653 0 "/>
<path transform="matrix(1,0,0,-1,107.591,236.971)" stroke-width=".3985" stroke-linecap="butt" stroke-miterlimit="10" stroke-linejoin="miter" fill="none" stroke="#000000" d="M 0 198.42766 L -24.76025 198.42766 "/>
<path transform="matrix(-1,-0,0,1,82.83075,38.543336)" d="M 3.58653 0 C 2.52383 .19925 .797 .797 -.3985 1.49438 L -.3985 -1.49438 C .797 -.797 2.52383 -.19925 3.58653 0 "/>
<path transform="matrix(1,0,0,-1,107.591,236.971)" stroke-width=".3985" stroke-linecap="butt" stroke-miterlimit="10" stroke-linejoin="miter" fill="none" stroke="#000000" d="M 0 226.77448 L -24.76025 226.77448 "/>
<path transform="matrix(-1,-0,0,1,82.83075,10.196518)" d="M 3.58653 0 C 2.52383 .19925 .797 .797 -.3985 1.49438 L -.3985 -1.49438 C .797 -.797 2.52383 -.19925 3.58653 0 "/>
<path transform="matrix(1,0,0,-1,107.591,236.971)" stroke-width=".3985" stroke-linecap="butt" stroke-miterlimit="10" stroke-linejoin="miter" fill="none" stroke="#000000" d="M 87.87527 87.87527 L 93.34299 93.34299 "/>
<text xml:space="preserve" transform="matrix(1 0 -0 1 0 277.254)" font-size="11.9552" font-family="CMMI12" font-style="italic"><tspan y="-151.002" x="364.816">&#x03c3;</tspan></text>
<text xml:space="preserve" transform="matrix(1 0 -0 1 0 277.254)" font-size="11.9552" font-family="CMR12"><tspan y="-151.002" x="375.801 388.80827 394.66633 404.43376 415.15757 422.78498">=10MPa</tspan></text>
<text xml:space="preserve" transform="matrix(1 0 -0 1 0 277.254)" font-size="11.9552" font-family="CMMI12" font-style="italic"><tspan y="-151.002" x="13.32">&#x03c3;</tspan></text>
<text xml:space="preserve" transform="matrix(1 0 -0 1 0 277.254)" font-size="11.9552" font-family="CMR12"><tspan y="-151.002" x="24.305 37.31226 43.170309 52.937707 63.661523 71.28894">=10MPa</tspan></text>
<text xml:space="preserve" transform="matrix(1 0 -0 1 0 277.25398)" font-size="11.9552" font-family="CMR12"><tspan y="-118.403" x="162.727 175.24411 188.26332 194.12137 197.37319 207.12863">R=0.5m</tspan></text>
<path transform="matrix(1,0,0,-1,107.591,236.971)" d="M 113.38724 113.38724 L 113.38724 226.77448 L 226.77448 226.77448 L 226.77448 113.38724 Z M 226.77448 226.77448 " fill-opacity=".75"/>
</g>
</svg>
