<?xml version="1.0" encoding="UTF-8" standalone="no"?>
<svg
   xmlns:dc="http://purl.org/dc/elements/1.1/"
   xmlns:cc="http://creativecommons.org/ns#"
   xmlns:rdf="http://www.w3.org/1999/02/22-rdf-syntax-ns#"
   xmlns:svg="http://www.w3.org/2000/svg"
   xmlns="http://www.w3.org/2000/svg"
   viewBox="0 0 589.27197 369.672"
   height="369.672"
   width="589.27197"
   xml:space="preserve"
   id="svg2"
   version="1.1"><metadata
     id="metadata8"><rdf:RDF><cc:Work
         rdf:about=""><dc:format>image/svg+xml</dc:format><dc:type
           rdf:resource="http://purl.org/dc/dcmitype/StillImage" /></cc:Work></rdf:RDF></metadata><defs
     id="defs6" /><g
     transform="matrix(1.3333333,0,0,-1.3333333,0,369.672)"
     id="g10"><g
       transform="translate(107.591,40.283)"
       id="g12"><g
         id="g14"><g
           id="g16"><path
             id="path18"
             style="fill:none;stroke:#000000;stroke-width:0.3985;stroke-linecap:butt;stroke-linejoin:miter;stroke-miterlimit:10;stroke-dasharray:none;stroke-opacity:1"
             d="M 0,0 V 226.77448 H 226.77448 V 0 Z" /><path
             id="path20"
             style="fill:none;stroke:#000000;stroke-width:0.3985;stroke-linecap:butt;stroke-linejoin:miter;stroke-miterlimit:10;stroke-dasharray:none;stroke-opacity:1"
             d="m 141.73404,113.38724 c 0,15.6557 -12.6911,28.3468 -28.3468,28.3468 -15.65572,0 -28.34682,-12.6911 -28.34682,-28.3468 0,-15.65572 12.6911,-28.34682 28.34682,-28.34682 15.6557,0 28.3468,12.6911 28.3468,28.34682 z" /><path
             id="path22"
             style="fill:none;stroke:#000000;stroke-width:0.3985;stroke-linecap:butt;stroke-linejoin:miter;stroke-miterlimit:10;stroke-dasharray:none;stroke-opacity:1"
             d="m 113.38724,113.38724 h 10.58685" /><g
             transform="translate(123.97409,113.38724)"
             id="g24"><g
               id="g26"><path
                 id="path28"
                 style="fill:#000000;fill-opacity:1;fill-rule:nonzero;stroke:none"
                 d="M 3.58653,0 C 2.52383,0.19925 0.797,0.797 -0.3985,1.49438 V -1.49438 C 0.797,-0.797 2.52383,-0.19925 3.58653,0" /></g></g><g
             id="g30"><g
               transform="translate(131.079,104.719)"
               id="g32"><g
                 id="g34"><g
                   transform="translate(-238.67,-145.002)"
                   id="g36"><text
                     id="text40"
                     style="font-variant:normal;font-weight:normal;font-size:11.9552002px;font-family:CMMI12;-inkscape-font-specification:CMMI12;writing-mode:lr-tb;fill:#000000;fill-opacity:1;fill-rule:nonzero;stroke:none"
                     transform="matrix(1,0,0,-1,238.67,145.002)"><tspan
                       id="tspan38"
                       y="0"
                       x="0">x</tspan></text>
<g
                     transform="translate(238.67,145.002)"
                     id="g42" /></g></g><g
                 transform="translate(-131.079,-104.719)"
                 id="g44" /></g></g><path
             id="path46"
             style="fill:none;stroke:#000000;stroke-width:0.3985;stroke-linecap:butt;stroke-linejoin:miter;stroke-miterlimit:10;stroke-dasharray:none;stroke-opacity:1"
             d="m 113.38724,113.38724 v 10.58685" /><g
             transform="rotate(90,-5.293425,118.68067)"
             id="g48"><g
               id="g50"><path
                 id="path52"
                 style="fill:#000000;fill-opacity:1;fill-rule:nonzero;stroke:none"
                 d="M 3.58653,0 C 2.52383,0.19925 0.797,0.797 -0.3985,1.49438 V -1.49438 C 0.797,-0.797 2.52383,-0.19925 3.58653,0" /></g></g><g
             id="g54"><g
               transform="translate(103.73,133.404)"
               id="g56"><g
                 id="g58"><g
                   transform="translate(-211.321,-173.687)"
                   id="g60"><text
                     id="text64"
                     style="font-variant:normal;font-weight:normal;font-size:11.9552002px;font-family:CMMI12;-inkscape-font-specification:CMMI12;writing-mode:lr-tb;fill:#000000;fill-opacity:1;fill-rule:nonzero;stroke:none"
                     transform="matrix(1,0,0,-1,211.321,173.687)"><tspan
                       id="tspan62"
                       y="0"
                       x="0">y</tspan></text>
<g
                     transform="translate(211.321,173.687)"
                     id="g66" /></g></g><g
                 transform="translate(-103.73,-133.404)"
                 id="g68" /></g></g><g
             id="g70"><path
               id="path72"
               style="fill:none;stroke:#000000;stroke-width:0.3985;stroke-linecap:butt;stroke-linejoin:miter;stroke-miterlimit:10;stroke-dasharray:2.98883, 2.98883;stroke-dashoffset:0;stroke-opacity:1"
               d="M 113.38724,0 V 226.77448" /><g
               id="g74"><g
                 transform="rotate(90,76.085,49.123)"
                 id="g76"><g
                   id="g78"><g
                     transform="translate(-232.799,-13.321)"
                     id="g80"><text
                       id="text84"
                       style="font-variant:normal;font-weight:normal;font-size:11.9552002px;font-family:CMR12;-inkscape-font-specification:CMR12;writing-mode:lr-tb;fill:#000000;fill-opacity:1;fill-rule:nonzero;stroke:none"
                       transform="matrix(1,0,0,-1,261.411,13.321)"><tspan
                         id="tspan82"
                         y="0"
                         x="0 4.6170983 10.795546 20.550989 30.306433 35.509335 40.061874 44.614414 54.690258 61.193886 64.445702 70.298965 76.802597">symmetryplane</tspan></text>
<g
                       transform="translate(232.799,13.321)"
                       id="g86" /></g></g><g
                   transform="translate(-125.208,26.962)"
                   id="g88" /></g></g></g><g
             id="g90"><path
               id="path92"
               style="fill:none;stroke:#000000;stroke-width:0.3985;stroke-linecap:butt;stroke-linejoin:miter;stroke-miterlimit:10;stroke-dasharray:2.98883, 2.98883;stroke-dashoffset:0;stroke-opacity:1"
               d="M 0,113.38724 H 226.77448" /><g
               id="g94"><g
                 transform="translate(-26.962,101.564)"
                 id="g96"><g
                   id="g98"><g
                     transform="translate(-80.629,-141.847)"
                     id="g100"><text
                       id="text104"
                       style="font-variant:normal;font-weight:normal;font-size:11.9552002px;font-family:CMR12;-inkscape-font-specification:CMR12;writing-mode:lr-tb;fill:#000000;fill-opacity:1;fill-rule:nonzero;stroke:none"
                       transform="matrix(1,0,0,-1,109.24,141.847)"><tspan
                         id="tspan102"
                         y="0"
                         x="0 4.6170983 10.795546 20.550989 30.306433 35.509335 40.061874 44.614414 54.690258 61.193886 64.445702 70.298965 76.802597">symmetryplane</tspan></text>
<g
                       transform="translate(80.629,141.847)"
                       id="g106" /></g></g><g
                   transform="translate(26.962,-101.564)"
                   id="g108" /></g></g></g><g
             id="g110" /><g
             id="g112" /><g
             id="g114"><g
               id="g116" /><g
               id="g118" /><g
               id="g120" /><g
               id="g122"><path
                 id="path124"
                 style="fill:none;stroke:#999999;stroke-width:0.00995;stroke-linecap:butt;stroke-linejoin:miter;stroke-miterlimit:10;stroke-dasharray:none;stroke-opacity:1"
                 d="M 0,-14.17339 V 99.21384" /></g><g
               id="g126" /><g
               id="g128"><path
                 id="path130"
                 style="fill:none;stroke:#999999;stroke-width:0.00995;stroke-linecap:butt;stroke-linejoin:miter;stroke-miterlimit:10;stroke-dasharray:none;stroke-opacity:1"
                 d="M 226.77448,-14.17339 V 99.21384" /></g><g
               id="g132"><path
                 id="path134"
                 style="fill:none;stroke:#000000;stroke-width:0.3985;stroke-linecap:butt;stroke-linejoin:miter;stroke-miterlimit:10;stroke-dasharray:none;stroke-opacity:1"
                 d="M 1.99252,-14.17339 H 224.78195" /><g
                 transform="rotate(180,0.99626,-7.086695)"
                 id="g136"><g
                   id="g138"><path
                     id="path140"
                     style="fill:none;stroke:#000000;stroke-width:0.19925;stroke-linecap:butt;stroke-linejoin:miter;stroke-miterlimit:10;stroke-dasharray:none;stroke-opacity:1"
                     d="M 1.89288,1.19551 V -1.19551" /><path
                     id="path142"
                     style="fill:#000000;fill-opacity:1;fill-rule:nonzero;stroke:#000000;stroke-width:0.00995;stroke-linecap:butt;stroke-linejoin:miter;stroke-miterlimit:10;stroke-dasharray:none;stroke-opacity:1"
                     d="M 1.79326,0 -1.19551,0.797 V -0.797 Z" /></g></g><g
                 transform="translate(224.78195,-14.17339)"
                 id="g144"><g
                   id="g146"><path
                     id="path148"
                     style="fill:none;stroke:#000000;stroke-width:0.19925;stroke-linecap:butt;stroke-linejoin:miter;stroke-miterlimit:10;stroke-dasharray:none;stroke-opacity:1"
                     d="M 1.89288,1.19551 V -1.19551" /><path
                     id="path150"
                     style="fill:#000000;fill-opacity:1;fill-rule:nonzero;stroke:#000000;stroke-width:0.00995;stroke-linecap:butt;stroke-linejoin:miter;stroke-miterlimit:10;stroke-dasharray:none;stroke-opacity:1"
                     d="M 1.79326,0 -1.19551,0.797 V -0.797 Z" /></g></g><g
                 id="g152"><g
                   id="g154"><path
                     id="path156"
                     style="fill:#ffffff;fill-opacity:1;fill-rule:nonzero;stroke:none"
                     d="m 102.26257,-21.34622 h 22.2493 v 14.34564 h -22.2493 z" /></g><g
                   transform="translate(105.582,-18.025)"
                   id="g158"><g
                     id="g160"><g
                       transform="translate(-213.173,-22.258)"
                       id="g162"><text
                         id="text166"
                         style="font-variant:normal;font-weight:normal;font-size:11.9552002px;font-family:CMR12;-inkscape-font-specification:CMR12;writing-mode:lr-tb;fill:#000000;fill-opacity:1;fill-rule:nonzero;stroke:none"
                         transform="matrix(1,0,0,-1,213.173,22.258)"><tspan
                           id="tspan164"
                           y="0"
                           x="0 5.8532658">4m</tspan></text>
<g
                         transform="translate(213.173,22.258)"
                         id="g168" /></g></g><g
                     transform="translate(-105.582,18.025)"
                     id="g170" /></g></g></g></g><path
             id="path172"
             style="fill:none;stroke:#000000;stroke-width:0.3985;stroke-linecap:butt;stroke-linejoin:miter;stroke-miterlimit:10;stroke-dasharray:none;stroke-opacity:1"
             d="m 95.87906,95.87906 14.97211,14.97211" /><g
             transform="matrix(-0.7071,-0.7071,0.7071,-0.7071,95.87906,95.87906)"
             id="g174"><g
               id="g176"><path
                 id="path178"
                 style="fill:#000000;fill-opacity:1;fill-rule:nonzero;stroke:none"
                 d="M 3.58653,0 C 2.52383,0.19925 0.797,0.797 -0.3985,1.49438 V -1.49438 C 0.797,-0.797 2.52383,-0.19925 3.58653,0" /></g></g><g
             transform="matrix(0.7071,0.7071,-0.7071,0.7071,110.85117,110.85117)"
             id="g180"><g
               id="g182"><path
                 id="path184"
                 style="fill:#000000;fill-opacity:1;fill-rule:nonzero;stroke:none"
                 d="M 3.58653,0 C 2.52383,0.19925 0.797,0.797 -0.3985,1.49438 V -1.49438 C 0.797,-0.797 2.52383,-0.19925 3.58653,0" /></g></g><path
             id="path186"
             style="fill:none;stroke:#000000;stroke-width:0.3985;stroke-linecap:butt;stroke-linejoin:miter;stroke-miterlimit:10;stroke-dasharray:none;stroke-opacity:1"
             d="m 226.77448,0 h 24.76026" /><g
             transform="translate(251.53474)"
             id="g188"><g
               id="g190"><path
                 id="path192"
                 style="fill:#000000;fill-opacity:1;fill-rule:nonzero;stroke:none"
                 d="M 3.58653,0 C 2.52383,0.19925 0.797,0.797 -0.3985,1.49438 V -1.49438 C 0.797,-0.797 2.52383,-0.19925 3.58653,0" /></g></g><path
             id="path194"
             style="fill:none;stroke:#000000;stroke-width:0.3985;stroke-linecap:butt;stroke-linejoin:miter;stroke-miterlimit:10;stroke-dasharray:none;stroke-opacity:1"
             d="m 226.77448,28.3468 h 24.76026" /><g
             transform="translate(251.53474,28.3468)"
             id="g196"><g
               id="g198"><path
                 id="path200"
                 style="fill:#000000;fill-opacity:1;fill-rule:nonzero;stroke:none"
                 d="M 3.58653,0 C 2.52383,0.19925 0.797,0.797 -0.3985,1.49438 V -1.49438 C 0.797,-0.797 2.52383,-0.19925 3.58653,0" /></g></g><path
             id="path202"
             style="fill:none;stroke:#000000;stroke-width:0.3985;stroke-linecap:butt;stroke-linejoin:miter;stroke-miterlimit:10;stroke-dasharray:none;stroke-opacity:1"
             d="m 226.77448,56.69362 h 24.76026" /><g
             transform="translate(251.53474,56.69362)"
             id="g204"><g
               id="g206"><path
                 id="path208"
                 style="fill:#000000;fill-opacity:1;fill-rule:nonzero;stroke:none"
                 d="M 3.58653,0 C 2.52383,0.19925 0.797,0.797 -0.3985,1.49438 V -1.49438 C 0.797,-0.797 2.52383,-0.19925 3.58653,0" /></g></g><path
             id="path210"
             style="fill:none;stroke:#000000;stroke-width:0.3985;stroke-linecap:butt;stroke-linejoin:miter;stroke-miterlimit:10;stroke-dasharray:none;stroke-opacity:1"
             d="m 226.77448,85.04042 h 24.76026" /><g
             transform="translate(251.53474,85.04042)"
             id="g212"><g
               id="g214"><path
                 id="path216"
                 style="fill:#000000;fill-opacity:1;fill-rule:nonzero;stroke:none"
                 d="M 3.58653,0 C 2.52383,0.19925 0.797,0.797 -0.3985,1.49438 V -1.49438 C 0.797,-0.797 2.52383,-0.19925 3.58653,0" /></g></g><path
             id="path218"
             style="fill:none;stroke:#000000;stroke-width:0.3985;stroke-linecap:butt;stroke-linejoin:miter;stroke-miterlimit:10;stroke-dasharray:none;stroke-opacity:1"
             d="m 226.77448,113.38724 h 24.76026" /><g
             transform="translate(251.53474,113.38724)"
             id="g220"><g
               id="g222"><path
                 id="path224"
                 style="fill:#000000;fill-opacity:1;fill-rule:nonzero;stroke:none"
                 d="M 3.58653,0 C 2.52383,0.19925 0.797,0.797 -0.3985,1.49438 V -1.49438 C 0.797,-0.797 2.52383,-0.19925 3.58653,0" /></g></g><path
             id="path226"
             style="fill:none;stroke:#000000;stroke-width:0.3985;stroke-linecap:butt;stroke-linejoin:miter;stroke-miterlimit:10;stroke-dasharray:none;stroke-opacity:1"
             d="m 226.77448,141.73404 h 24.76026" /><g
             transform="translate(251.53474,141.73404)"
             id="g228"><g
               id="g230"><path
                 id="path232"
                 style="fill:#000000;fill-opacity:1;fill-rule:nonzero;stroke:none"
                 d="M 3.58653,0 C 2.52383,0.19925 0.797,0.797 -0.3985,1.49438 V -1.49438 C 0.797,-0.797 2.52383,-0.19925 3.58653,0" /></g></g><path
             id="path234"
             style="fill:none;stroke:#000000;stroke-width:0.3985;stroke-linecap:butt;stroke-linejoin:miter;stroke-miterlimit:10;stroke-dasharray:none;stroke-opacity:1"
             d="m 226.77448,170.08086 h 24.76026" /><g
             transform="translate(251.53474,170.08086)"
             id="g236"><g
               id="g238"><path
                 id="path240"
                 style="fill:#000000;fill-opacity:1;fill-rule:nonzero;stroke:none"
                 d="M 3.58653,0 C 2.52383,0.19925 0.797,0.797 -0.3985,1.49438 V -1.49438 C 0.797,-0.797 2.52383,-0.19925 3.58653,0" /></g></g><path
             id="path242"
             style="fill:none;stroke:#000000;stroke-width:0.3985;stroke-linecap:butt;stroke-linejoin:miter;stroke-miterlimit:10;stroke-dasharray:none;stroke-opacity:1"
             d="m 226.77448,198.42766 h 24.76026" /><g
             transform="translate(251.53474,198.42766)"
             id="g244"><g
               id="g246"><path
                 id="path248"
                 style="fill:#000000;fill-opacity:1;fill-rule:nonzero;stroke:none"
                 d="M 3.58653,0 C 2.52383,0.19925 0.797,0.797 -0.3985,1.49438 V -1.49438 C 0.797,-0.797 2.52383,-0.19925 3.58653,0" /></g></g><path
             id="path250"
             style="fill:none;stroke:#000000;stroke-width:0.3985;stroke-linecap:butt;stroke-linejoin:miter;stroke-miterlimit:10;stroke-dasharray:none;stroke-opacity:1"
             d="m 226.77448,226.77448 h 24.76026" /><g
             transform="translate(251.53474,226.77448)"
             id="g252"><g
               id="g254"><path
                 id="path256"
                 style="fill:#000000;fill-opacity:1;fill-rule:nonzero;stroke:none"
                 d="M 3.58653,0 C 2.52383,0.19925 0.797,0.797 -0.3985,1.49438 V -1.49438 C 0.797,-0.797 2.52383,-0.19925 3.58653,0" /></g></g><path
             id="path258"
             style="fill:none;stroke:#000000;stroke-width:0.3985;stroke-linecap:butt;stroke-linejoin:miter;stroke-miterlimit:10;stroke-dasharray:none;stroke-opacity:1"
             d="M 0,0 H -24.76025" /><g
             transform="rotate(180,-12.380125,0)"
             id="g260"><g
               id="g262"><path
                 id="path264"
                 style="fill:#000000;fill-opacity:1;fill-rule:nonzero;stroke:none"
                 d="M 3.58653,0 C 2.52383,0.19925 0.797,0.797 -0.3985,1.49438 V -1.49438 C 0.797,-0.797 2.52383,-0.19925 3.58653,0" /></g></g><path
             id="path266"
             style="fill:none;stroke:#000000;stroke-width:0.3985;stroke-linecap:butt;stroke-linejoin:miter;stroke-miterlimit:10;stroke-dasharray:none;stroke-opacity:1"
             d="M 0,28.3468 H -24.76025" /><g
             transform="rotate(180,-12.380125,14.1734)"
             id="g268"><g
               id="g270"><path
                 id="path272"
                 style="fill:#000000;fill-opacity:1;fill-rule:nonzero;stroke:none"
                 d="M 3.58653,0 C 2.52383,0.19925 0.797,0.797 -0.3985,1.49438 V -1.49438 C 0.797,-0.797 2.52383,-0.19925 3.58653,0" /></g></g><path
             id="path274"
             style="fill:none;stroke:#000000;stroke-width:0.3985;stroke-linecap:butt;stroke-linejoin:miter;stroke-miterlimit:10;stroke-dasharray:none;stroke-opacity:1"
             d="M 0,56.69362 H -24.76025" /><g
             transform="rotate(180,-12.380125,28.34681)"
             id="g276"><g
               id="g278"><path
                 id="path280"
                 style="fill:#000000;fill-opacity:1;fill-rule:nonzero;stroke:none"
                 d="M 3.58653,0 C 2.52383,0.19925 0.797,0.797 -0.3985,1.49438 V -1.49438 C 0.797,-0.797 2.52383,-0.19925 3.58653,0" /></g></g><path
             id="path282"
             style="fill:none;stroke:#000000;stroke-width:0.3985;stroke-linecap:butt;stroke-linejoin:miter;stroke-miterlimit:10;stroke-dasharray:none;stroke-opacity:1"
             d="M 0,85.04042 H -24.76025" /><g
             transform="rotate(180,-12.380125,42.52021)"
             id="g284"><g
               id="g286"><path
                 id="path288"
                 style="fill:#000000;fill-opacity:1;fill-rule:nonzero;stroke:none"
                 d="M 3.58653,0 C 2.52383,0.19925 0.797,0.797 -0.3985,1.49438 V -1.49438 C 0.797,-0.797 2.52383,-0.19925 3.58653,0" /></g></g><path
             id="path290"
             style="fill:none;stroke:#000000;stroke-width:0.3985;stroke-linecap:butt;stroke-linejoin:miter;stroke-miterlimit:10;stroke-dasharray:none;stroke-opacity:1"
             d="M 0,113.38724 H -24.76025" /><g
             transform="rotate(180,-12.380125,56.69362)"
             id="g292"><g
               id="g294"><path
                 id="path296"
                 style="fill:#000000;fill-opacity:1;fill-rule:nonzero;stroke:none"
                 d="M 3.58653,0 C 2.52383,0.19925 0.797,0.797 -0.3985,1.49438 V -1.49438 C 0.797,-0.797 2.52383,-0.19925 3.58653,0" /></g></g><path
             id="path298"
             style="fill:none;stroke:#000000;stroke-width:0.3985;stroke-linecap:butt;stroke-linejoin:miter;stroke-miterlimit:10;stroke-dasharray:none;stroke-opacity:1"
             d="M 0,141.73404 H -24.76025" /><g
             transform="rotate(180,-12.380125,70.86702)"
             id="g300"><g
               id="g302"><path
                 id="path304"
                 style="fill:#000000;fill-opacity:1;fill-rule:nonzero;stroke:none"
                 d="M 3.58653,0 C 2.52383,0.19925 0.797,0.797 -0.3985,1.49438 V -1.49438 C 0.797,-0.797 2.52383,-0.19925 3.58653,0" /></g></g><path
             id="path306"
             style="fill:none;stroke:#000000;stroke-width:0.3985;stroke-linecap:butt;stroke-linejoin:miter;stroke-miterlimit:10;stroke-dasharray:none;stroke-opacity:1"
             d="M 0,170.08086 H -24.76025" /><g
             transform="rotate(180,-12.380125,85.04043)"
             id="g308"><g
               id="g310"><path
                 id="path312"
                 style="fill:#000000;fill-opacity:1;fill-rule:nonzero;stroke:none"
                 d="M 3.58653,0 C 2.52383,0.19925 0.797,0.797 -0.3985,1.49438 V -1.49438 C 0.797,-0.797 2.52383,-0.19925 3.58653,0" /></g></g><path
             id="path314"
             style="fill:none;stroke:#000000;stroke-width:0.3985;stroke-linecap:butt;stroke-linejoin:miter;stroke-miterlimit:10;stroke-dasharray:none;stroke-opacity:1"
             d="M 0,198.42766 H -24.76025" /><g
             transform="rotate(180,-12.380125,99.21383)"
             id="g316"><g
               id="g318"><path
                 id="path320"
                 style="fill:#000000;fill-opacity:1;fill-rule:nonzero;stroke:none"
                 d="M 3.58653,0 C 2.52383,0.19925 0.797,0.797 -0.3985,1.49438 V -1.49438 C 0.797,-0.797 2.52383,-0.19925 3.58653,0" /></g></g><path
             id="path322"
             style="fill:none;stroke:#000000;stroke-width:0.3985;stroke-linecap:butt;stroke-linejoin:miter;stroke-miterlimit:10;stroke-dasharray:none;stroke-opacity:1"
             d="M 0,226.77448 H -24.76025" /><g
             transform="rotate(180,-12.380125,113.38724)"
             id="g324"><g
               id="g326"><path
                 id="path328"
                 style="fill:#000000;fill-opacity:1;fill-rule:nonzero;stroke:none"
                 d="M 3.58653,0 C 2.52383,0.19925 0.797,0.797 -0.3985,1.49438 V -1.49438 C 0.797,-0.797 2.52383,-0.19925 3.58653,0" /></g></g><path
             id="path330"
             style="fill:none;stroke:#000000;stroke-width:0.3985;stroke-linecap:butt;stroke-linejoin:miter;stroke-miterlimit:10;stroke-dasharray:none;stroke-opacity:1"
             d="m 87.87527,87.87527 5.46772,5.46772" /><g
             id="g332"><g
               transform="translate(257.225,110.719)"
               id="g334"><g
                 id="g336"><g
                   transform="translate(-364.816,-151.002)"
                   id="g338"><text
                     id="text342"
                     style="font-variant:normal;font-weight:normal;font-size:11.9552002px;font-family:CMMI12;-inkscape-font-specification:CMMI12;writing-mode:lr-tb;fill:#000000;fill-opacity:1;fill-rule:nonzero;stroke:none"
                     transform="matrix(1,0,0,-1,364.816,151.002)"><tspan
                       id="tspan340"
                       y="0"
                       x="0">σ</tspan></text>
<text
                     id="text346"
                     style="font-variant:normal;font-weight:normal;font-size:11.9552002px;font-family:CMR12;-inkscape-font-specification:CMR12;writing-mode:lr-tb;fill:#000000;fill-opacity:1;fill-rule:nonzero;stroke:none"
                     transform="matrix(1,0,0,-1,375.801,151.002)"><tspan
                       id="tspan344"
                       y="0"
                       x="0 13.002476 18.855742 28.618359 39.344563 46.974373">=10MPa</tspan></text>
<g
                     transform="translate(364.816,151.002)"
                     id="g348" /></g></g><g
                 transform="translate(-257.225,-110.719)"
                 id="g350" /></g></g><g
             id="g352"><g
               transform="translate(-94.271,110.719)"
               id="g354"><g
                 id="g356"><g
                   transform="translate(-13.32,-151.002)"
                   id="g358"><text
                     id="text362"
                     style="font-variant:normal;font-weight:normal;font-size:11.9552002px;font-family:CMMI12;-inkscape-font-specification:CMMI12;writing-mode:lr-tb;fill:#000000;fill-opacity:1;fill-rule:nonzero;stroke:none"
                     transform="matrix(1,0,0,-1,13.32,151.002)"><tspan
                       id="tspan360"
                       y="0"
                       x="0">σ</tspan></text>
<text
                     id="text366"
                     style="font-variant:normal;font-weight:normal;font-size:11.9552002px;font-family:CMR12;-inkscape-font-specification:CMR12;writing-mode:lr-tb;fill:#000000;fill-opacity:1;fill-rule:nonzero;stroke:none"
                     transform="matrix(1,0,0,-1,24.305,151.002)"><tspan
                       id="tspan364"
                       y="0"
                       x="0 13.002476 18.855742 28.618359 39.344563 46.974373">=10MPa</tspan></text>
<g
                     transform="translate(13.32,151.002)"
                     id="g368" /></g></g><g
                 transform="translate(94.271,-110.719)"
                 id="g370" /></g></g><g
             id="g372"><g
               transform="translate(65.541,78.12)"
               id="g374"><g
                 id="g376"><g
                   transform="translate(-173.132,-118.403)"
                   id="g378"><text
                     id="text382"
                     style="font-variant:normal;font-weight:normal;font-size:11.9552002px;font-family:CMR12;-inkscape-font-specification:CMR12;writing-mode:lr-tb;fill:#000000;fill-opacity:1;fill-rule:nonzero;stroke:none"
                     transform="matrix(1,0,0,-1,173.132,118.403)"><tspan
                       id="tspan380"
                       y="0"
                       x="0 8.6149168 14.468183 17.719997 23.573263">R0.5m</tspan></text>
<g
                     transform="translate(173.132,118.403)"
                     id="g384" /></g></g><g
                 transform="translate(-65.541,-78.12)"
                 id="g386" /></g></g><g
             id="g388"><path
               id="path390"
               style="fill:#000000;fill-opacity:0.75;fill-rule:nonzero;stroke:none"
               d="M 113.38724,113.38724 V 226.77448 H 226.77448 V 113.38724 Z" /></g></g></g></g></g></svg>